<svg width="61" height="61" viewBox="0 0 61 61" fill="none" xmlns="http://www.w3.org/2000/svg">
<path d="M37.8574 25.5529H37.8824M24.1074 38.0529C24.9221 38.8844 25.8945 39.5449 26.9677 39.9959C28.0409 40.4468 29.1933 40.6791 30.3574 40.6791C31.5215 40.6791 32.6739 40.4468 33.7471 39.9959C34.8203 39.5449 35.7927 38.8844 36.6074 38.0529M21.6074 21.8029L25.3574 25.5529L21.6074 29.3029M7.85742 30.5529C7.85742 33.5076 8.4394 36.4334 9.57013 39.1632C10.7009 41.8931 12.3582 44.3734 14.4475 46.4628C16.5368 48.5521 19.0172 50.2094 21.747 51.3401C24.4769 52.4709 27.4027 53.0529 30.3574 53.0529C33.3122 53.0529 36.238 52.4709 38.9678 51.3401C41.6976 50.2094 44.178 48.5521 46.2673 46.4628C48.3566 44.3734 50.014 41.8931 51.1447 39.1632C52.2754 36.4334 52.8574 33.5076 52.8574 30.5529C52.8574 27.5981 52.2754 24.6723 51.1447 21.9425C50.014 19.2127 48.3566 16.7323 46.2673 14.643C44.178 12.5536 41.6976 10.8963 38.9678 9.76557C36.238 8.63484 33.3122 8.05286 30.3574 8.05286C27.4027 8.05286 24.4769 8.63484 21.747 9.76557C19.0172 10.8963 16.5368 12.5536 14.4475 14.643C12.3582 16.7323 10.7009 19.2127 9.57013 21.9425C8.4394 24.6723 7.85742 27.5981 7.85742 30.5529Z" stroke="white" stroke-width="2" stroke-linecap="round" stroke-linejoin="round"/>
</svg>
