<svg width="61" height="61" viewBox="0 0 61 61" fill="none" xmlns="http://www.w3.org/2000/svg">
<path d="M14.1071 8.05286C15.5371 8.05271 16.9454 8.40305 18.2087 9.07322C19.4719 9.74339 20.5517 10.713 21.3535 11.8971C22.1552 13.0812 22.6545 14.4438 22.8077 15.8656C22.9609 17.2875 22.7632 18.7251 22.2321 20.0529C19.8339 21.3116 17.7597 23.1085 16.1721 25.3029C14.9696 25.5966 13.7185 25.6319 12.5014 25.4064C11.2843 25.1809 10.1289 24.6997 9.11146 23.9947C8.09406 23.2896 7.23783 22.3767 6.59934 21.3162C5.96085 20.2558 5.55462 19.0719 5.40749 17.8429C5.26036 16.6138 5.37568 15.3676 5.74582 14.1864C6.11597 13.0052 6.73252 11.916 7.55475 10.9907C8.37698 10.0654 9.38617 9.32507 10.5157 8.81865C11.6452 8.31223 12.8693 8.05122 14.1071 8.05286Z" stroke="white" stroke-width="2" stroke-linecap="round" stroke-linejoin="round"/>
<path d="M46.6076 8.05287C47.8437 8.05413 49.0655 8.31727 50.1925 8.82494C51.3195 9.33262 52.3261 10.0733 53.1461 10.9982C53.9661 11.9232 54.5808 13.0113 54.9498 14.1911C55.3188 15.3708 55.4336 16.6153 55.2867 17.8426C55.1398 19.0699 54.7346 20.2522 54.0977 21.3115C53.4607 22.3709 52.6066 23.2832 51.5915 23.9886C50.5764 24.6939 49.4234 25.1761 48.2084 25.4035C46.9935 25.6309 45.7441 25.5983 44.5426 25.3079C42.9561 23.1105 40.8818 21.3109 38.4826 20.0504C37.952 18.7228 37.7548 17.2854 37.9082 15.8639C38.0616 14.4424 38.561 13.0802 39.3627 11.8964C40.1644 10.7126 41.244 9.7433 42.507 9.07326C43.77 8.40322 45.1779 8.05287 46.6076 8.05287Z" stroke="white" stroke-width="2" stroke-linecap="round" stroke-linejoin="round"/>
<path d="M12.8577 35.5529C12.8577 37.851 13.3103 40.1266 14.1898 42.2498C15.0692 44.373 16.3583 46.3022 17.9833 47.9272C19.6083 49.5523 21.5375 50.8413 23.6607 51.7208C25.7839 52.6002 28.0595 53.0529 30.3577 53.0529C32.6558 53.0529 34.9314 52.6002 37.0546 51.7208C39.1778 50.8413 41.107 49.5523 42.732 47.9272C44.3571 46.3022 45.6461 44.373 46.5256 42.2498C47.405 40.1266 47.8577 37.851 47.8577 35.5529C47.8577 33.2547 47.405 30.9791 46.5256 28.8559C45.6461 26.7327 44.3571 24.8035 42.732 23.1785C41.107 21.5535 39.1778 20.2644 37.0546 19.385C34.9314 18.5055 32.6558 18.0529 30.3577 18.0529C28.0595 18.0529 25.7839 18.5055 23.6607 19.385C21.5375 20.2644 19.6083 21.5535 17.9833 23.1785C16.3583 24.8035 15.0692 26.7327 14.1898 28.8559C13.3103 30.9791 12.8577 33.2547 12.8577 35.5529Z" stroke="white" stroke-width="2" stroke-linecap="round" stroke-linejoin="round"/>
</svg>
