<svg width="61" height="61" viewBox="0 0 61 61" fill="none" xmlns="http://www.w3.org/2000/svg">
<path d="M30.3577 53.0529C27.4029 53.0529 24.4771 52.4709 21.7473 51.3401C19.0175 50.2094 16.5371 48.5521 14.4478 46.4628C12.3584 44.3734 10.7011 41.8931 9.57038 39.1632C8.43965 36.4334 7.85767 33.5076 7.85767 30.5529C7.85767 27.5981 8.43965 24.6723 9.57038 21.9425C10.7011 19.2127 12.3584 16.7323 14.4478 14.643C16.5371 12.5536 19.0175 10.8963 21.7473 9.76557C24.4771 8.63484 27.4029 8.05286 30.3577 8.05286M30.3577 53.0529C33.3124 53.0529 36.2382 52.4709 38.968 51.3401C41.6979 50.2094 44.1782 48.5521 46.2676 46.4628M30.3577 53.0529C36.325 53.0529 42.048 50.6823 46.2676 46.4628M46.2676 46.4628C48.3569 44.3734 50.0142 41.8931 51.145 39.1632C52.2757 36.4334 52.8577 33.5076 52.8577 30.5529M46.2676 46.4628C50.4871 42.2432 52.8577 36.5202 52.8577 30.5529M52.8577 30.5529C52.8577 27.5981 52.2757 24.6723 51.145 21.9425C50.0142 19.2127 48.3569 16.7323 46.2676 14.643M52.8577 30.5529C52.8577 24.5855 50.4871 18.8625 46.2676 14.643M46.2676 14.643C44.1782 12.5536 41.6979 10.8963 38.968 9.76557C36.2382 8.63484 33.3124 8.05286 30.3577 8.05286M46.2676 14.643C42.048 10.4234 36.325 8.05286 30.3577 8.05286M22.8577 20.5529L37.8577 28.0529M22.8577 28.0529L37.8577 20.5529M22.8577 35.5529H37.8577C37.8577 37.542 37.0675 39.4496 35.661 40.8562C34.2544 42.2627 32.3468 43.0529 30.3577 43.0529C28.3685 43.0529 26.4609 42.2627 25.0544 40.8562C23.6478 39.4496 22.8577 37.542 22.8577 35.5529Z" stroke="white" stroke-width="2" stroke-linecap="round" stroke-linejoin="round"/>
</svg>
