<svg width="61" height="61" viewBox="0 0 61 61" fill="none" xmlns="http://www.w3.org/2000/svg">
<path d="M36.6074 40.6779C35.7927 39.8464 34.8203 39.1858 33.7471 38.7348C32.6739 38.2839 31.5215 38.0516 30.3574 38.0516C29.1933 38.0516 28.0409 38.2839 26.9677 38.7348C25.8945 39.1858 24.9221 39.8464 24.1074 40.6779M25.3574 23.6779C24.1074 26.1779 19.1074 26.1779 17.8574 23.6779M42.8574 23.6779C41.6074 26.1779 36.6074 26.1779 35.3574 23.6779M7.85742 30.5529C7.85742 33.5076 8.4394 36.4334 9.57013 39.1632C10.7009 41.8931 12.3582 44.3734 14.4475 46.4628C16.5368 48.5521 19.0172 50.2094 21.747 51.3401C24.4769 52.4709 27.4027 53.0529 30.3574 53.0529C33.3122 53.0529 36.238 52.4709 38.9678 51.3401C41.6976 50.2094 44.178 48.5521 46.2673 46.4628C48.3566 44.3734 50.014 41.8931 51.1447 39.1632C52.2754 36.4334 52.8574 33.5076 52.8574 30.5529C52.8574 27.5981 52.2754 24.6723 51.1447 21.9425C50.014 19.2127 48.3566 16.7323 46.2673 14.643C44.178 12.5536 41.6976 10.8963 38.9678 9.76557C36.238 8.63484 33.3122 8.05286 30.3574 8.05286C27.4027 8.05286 24.4769 8.63484 21.747 9.76557C19.0172 10.8963 16.5368 12.5536 14.4475 14.643C12.3582 16.7323 10.7009 19.2127 9.57013 21.9425C8.4394 24.6723 7.85742 27.5981 7.85742 30.5529Z" stroke="white" stroke-width="2" stroke-linecap="round" stroke-linejoin="round"/>
</svg>
