<svg width="61" height="61" viewBox="0 0 61 61" fill="none" xmlns="http://www.w3.org/2000/svg">
<path d="M37.8574 33.0529H37.8824M45.3574 33.0529H45.3824M37.8574 41.8029C40.3574 43.4704 42.8574 43.4704 45.3574 41.8029M21.9369 40.5079C21.6195 40.5379 21.3008 40.553 20.9819 40.5529H17.2319C14.7379 40.5527 12.3339 39.6205 10.4917 37.9392C8.64946 36.258 7.502 33.949 7.27441 31.4654L5.85691 16.0104C5.7933 15.318 5.87477 14.62 6.09613 13.9609C6.31749 13.3018 6.67388 12.6962 7.14252 12.1826C7.61117 11.669 8.18177 11.2588 8.81788 10.9782C9.454 10.6976 10.1417 10.5527 10.8369 10.5529H27.3769C28.703 10.5529 29.9748 11.0796 30.9124 12.0173C31.8501 12.955 32.3769 14.2268 32.3769 15.5529M15.3574 20.5529H15.3824M22.8574 20.5529H22.8824M15.3574 30.5529C17.2674 29.2779 19.1774 28.9779 21.0849 29.6529M33.3369 23.0529H49.8769C50.5722 23.0527 51.2598 23.1976 51.896 23.4782C52.5321 23.7588 53.1027 24.169 53.5713 24.6826C54.04 25.1962 54.3963 25.8018 54.6177 26.4609C54.8391 27.12 54.9205 27.818 54.8569 28.5104L53.4394 43.9654C53.2118 46.449 52.0644 48.758 50.2222 50.4392C48.38 52.1205 45.976 53.0527 43.4819 53.0529H39.7319C37.2379 53.0527 34.8339 52.1205 32.9917 50.4392C31.1495 48.758 30.002 46.449 29.7744 43.9654L28.3569 28.5104C28.2933 27.818 28.3748 27.12 28.5961 26.4609C28.8175 25.8018 29.1739 25.1962 29.6425 24.6826C30.1112 24.169 30.6818 23.7588 31.3179 23.4782C31.954 23.1976 32.6417 23.0527 33.3369 23.0529Z" stroke="white" stroke-width="2" stroke-linecap="round" stroke-linejoin="round"/>
</svg>
