<svg width="61" height="61" viewBox="0 0 61 61" fill="none" xmlns="http://www.w3.org/2000/svg">
<path d="M27.8574 43.0529C28.646 43.397 29.4971 43.5746 30.3574 43.5746C31.2178 43.5746 32.0689 43.397 32.8574 43.0529M20.3574 28.0529L25.3574 33.0529M40.3574 28.0529L35.3574 33.0529M30.3578 8.05286C18.6978 8.05286 11.8678 13.8804 10.7028 22.0404C9.53396 29.5774 11.3256 37.2743 15.7028 43.5204C17.8095 46.5999 20.5328 49.2083 23.7003 51.1804C27.8653 53.6804 32.8603 53.6804 37.0253 51.1804C40.1928 49.2083 42.9161 46.5999 45.0228 43.5204C49.3822 37.2664 51.1722 29.5766 50.0228 22.0404C48.8578 13.8779 42.0278 8.05286 30.3678 8.05286H30.3578Z" stroke="white" stroke-width="2" stroke-linecap="round" stroke-linejoin="round"/>
</svg>
