<svg width="61" height="61" viewBox="0 0 61 61" fill="none" xmlns="http://www.w3.org/2000/svg">
<path d="M25.3577 23.0529H25.3827M35.3577 23.0529H35.3827M30.3577 8.05286C34.999 8.05286 39.4501 9.8966 42.732 13.1785C46.0139 16.4604 47.8577 20.9116 47.8577 25.5529V28.0529H50.3577C51.6837 28.0529 52.9555 28.5796 53.8932 29.5173C54.8309 30.455 55.3577 31.7268 55.3577 33.0529C55.3577 34.3789 54.8309 35.6507 53.8932 36.5884C52.9555 37.5261 51.6837 38.0529 50.3577 38.0529H47.8577V45.5529L52.8577 53.0529H27.8577C23.975 53.0556 20.2425 51.5527 17.4451 48.8602C14.6477 46.1676 13.0033 42.4953 12.8577 38.6154V38.0504H10.3577C9.03158 38.0504 7.75981 37.5236 6.82213 36.5859C5.88445 35.6482 5.35767 34.3764 5.35767 33.0504C5.35767 31.7243 5.88445 30.4525 6.82213 29.5148C7.75981 28.5771 9.03158 28.0504 10.3577 28.0504H12.8577V25.5504C12.8577 20.9091 14.7014 16.4579 17.9833 13.176C21.2652 9.8941 25.7164 8.05286 30.3577 8.05286ZM27.8577 35.5529H32.8577C32.8577 34.8898 32.5943 34.2539 32.1254 33.7851C31.6566 33.3162 31.0207 33.0529 30.3577 33.0529C29.6946 33.0529 29.0587 33.3162 28.5899 33.7851C28.1211 34.2539 27.8577 34.8898 27.8577 35.5529Z" stroke="white" stroke-width="2" stroke-linecap="round" stroke-linejoin="round"/>
</svg>
