<svg width="61" height="61" viewBox="0 0 61 61" fill="none" xmlns="http://www.w3.org/2000/svg">
<path d="M49.107 31.9829L30.357 50.5529M30.357 50.5529L11.607 31.9829C10.3702 30.7794 9.39606 29.3329 8.74582 27.7345C8.09559 26.136 7.78336 24.4202 7.8288 22.6952C7.87424 20.9702 8.27636 19.2732 9.00985 17.7112C9.74333 16.1492 10.7923 14.756 12.0907 13.6193C13.389 12.4826 14.9087 11.6271 16.554 11.1066C18.1992 10.5861 19.9345 10.4118 21.6504 10.5949C23.3663 10.7779 25.0257 11.3143 26.5241 12.1701C28.0226 13.026 29.3276 14.1829 30.357 15.5679C31.3908 14.1929 32.6973 13.0462 34.1947 12.1994C35.6921 11.3526 37.3482 10.824 39.0593 10.6467C40.7704 10.4693 42.4997 10.6471 44.1389 11.1689C45.7781 11.6906 47.292 12.5451 48.5858 13.6788C49.8796 14.8125 50.9255 16.2011 51.658 17.7576C52.3905 19.3141 52.7938 21.0051 52.8427 22.7246C52.8916 24.4442 52.5851 26.1554 51.9423 27.751C51.2995 29.3466 50.3342 30.7924 49.107 31.9979M30.357 50.5529L30.3574 43.0529L35.3574 33.0529L25.3574 25.5529L30.3574 15.5529" stroke="white" stroke-width="2" stroke-linecap="round" stroke-linejoin="round"/>
</svg>
