<svg width="25" height="25" viewBox="0 0 25 25" fill="none" xmlns="http://www.w3.org/2000/svg">
<path d="M21.1122 3.88774L21.8193 3.18064V3.18064L21.1122 3.88774ZM6.77083 21.912V22.912C7.03605 22.912 7.2904 22.8066 7.47794 22.6191L6.77083 21.912ZM3.125 21.912H2.125C2.125 22.4642 2.57272 22.912 3.125 22.912V21.912ZM3.125 18.1921L2.41789 17.485C2.23036 17.6725 2.125 17.9269 2.125 18.1921H3.125ZM18.1365 4.59485C18.7629 3.96838 19.7786 3.96838 20.4051 4.59485L21.8193 3.18064C20.4118 1.77312 18.1298 1.77312 16.7222 3.18064L18.1365 4.59485ZM20.4051 4.59485C21.0316 5.22132 21.0316 6.23702 20.4051 6.86348L21.8193 8.2777C23.2268 6.87018 23.2268 4.58815 21.8193 3.18064L20.4051 4.59485ZM20.4051 6.86348L6.06373 21.2048L7.47794 22.6191L21.8193 8.2777L20.4051 6.86348ZM6.77083 20.912H3.125V22.912H6.77083V20.912ZM16.7222 3.18064L2.41789 17.485L3.83211 18.8992L18.1365 4.59485L16.7222 3.18064ZM2.125 18.1921V21.912H4.125V18.1921H2.125ZM15.1597 6.15735L18.8426 9.8402L20.2568 8.42598L16.574 4.74314L15.1597 6.15735Z" fill="#0C0C0C"/>
</svg>
