<svg width="61" height="61" viewBox="0 0 61 61" fill="none" xmlns="http://www.w3.org/2000/svg">
<path d="M10.3577 43.0529L22.8577 45.5529L24.7327 41.8029M37.8577 53.0529V43.0529L27.8577 35.5529L30.3577 20.5529M30.3577 20.5529L17.8577 23.0529V30.5529M30.3577 20.5529L37.8577 28.0529L45.3577 30.5529M30.3577 10.5529C30.3577 11.2159 30.6211 11.8518 31.0899 12.3206C31.5587 12.7895 32.1946 13.0529 32.8577 13.0529C33.5207 13.0529 34.1566 12.7895 34.6254 12.3206C35.0943 11.8518 35.3577 11.2159 35.3577 10.5529C35.3577 9.88982 35.0943 9.25393 34.6254 8.78509C34.1566 8.31625 33.5207 8.05286 32.8577 8.05286C32.1946 8.05286 31.5587 8.31625 31.0899 8.78509C30.6211 9.25393 30.3577 9.88982 30.3577 10.5529Z" stroke="white" stroke-width="2" stroke-linecap="round" stroke-linejoin="round"/>
</svg>
