<svg width="15" height="11" viewBox="0 0 15 11" fill="none" xmlns="http://www.w3.org/2000/svg">
<path d="M7.50043 7C8.32886 7 9.00043 6.32843 9.00043 5.5C9.00043 4.67157 8.32886 4 7.50043 4C6.67201 4 6.00043 4.67157 6.00043 5.5C6.00043 6.32843 6.67201 7 7.50043 7Z" fill="white"/>
<path fill-rule="evenodd" clip-rule="evenodd" d="M0.34375 5.50003C1.29944 2.45718 4.14217 0.25 7.50041 0.25C10.8586 0.25 13.7013 2.45716 14.657 5.49997C13.7014 8.54282 10.8586 10.75 7.50039 10.75C4.14217 10.75 1.29946 8.54284 0.34375 5.50003ZM10.5004 5.5C10.5004 7.15685 9.15729 8.5 7.50043 8.5C5.84358 8.5 4.50043 7.15685 4.50043 5.5C4.50043 3.84315 5.84358 2.5 7.50043 2.5C9.15729 2.5 10.5004 3.84315 10.5004 5.5Z" fill="white"/>
</svg>
