<svg width="570" height="546" viewBox="0 0 570 546" fill="none" xmlns="http://www.w3.org/2000/svg">
<path d="M255.26 518.523C242.972 518.523 232.267 516.221 223.146 511.616C214.026 506.916 206.97 500.345 201.977 491.903C197.081 483.462 194.633 473.581 194.633 462.261C194.633 450.942 197.081 441.061 201.977 432.62C206.97 424.178 214.026 417.655 223.146 413.051C232.267 408.35 242.972 406 255.26 406C267.453 406 278.062 408.35 287.086 413.051C296.207 417.655 303.263 424.178 308.255 432.62C313.248 441.061 315.744 450.942 315.744 462.261C315.744 473.581 313.248 483.462 308.255 491.903C303.263 500.345 296.207 506.916 287.086 511.616C278.062 516.221 267.453 518.523 255.26 518.523ZM255.26 494.349C264.957 494.349 272.493 491.567 277.87 486.004C283.246 480.344 285.934 472.43 285.934 462.261C285.934 451.997 283.246 444.083 277.87 438.519C272.493 432.956 264.957 430.174 255.26 430.174C245.564 430.174 237.979 432.956 232.507 438.519C227.035 444.083 224.299 451.997 224.299 462.261C224.299 472.43 227.035 480.344 232.507 486.004C237.979 491.567 245.564 494.349 255.26 494.349Z" fill="url(#paint0_linear_2796_10603)"/>
<path d="M423.721 408.302V516.221L416.999 519L394.199 516.221V421.396H403.271L347.108 483.414L346.964 474.061H441.002V496.076L433.999 499L325.219 496.076V475.068L379.152 411.245L385.99 408.302H423.721Z" fill="url(#paint1_linear_2796_10603)"/>
<path d="M166.22 408V515.919L159.5 518.698L136.699 515.919V421.094H145.771L89.6079 483.111L89.4639 473.758H183.501V495.774L176.841 498.672L67.7188 495.774V474.766L122 411L128.49 408H166.22Z" fill="url(#paint2_linear_2796_10603)"/>
<path d="M159.502 411.292V518.708H129.98V424.325H139.052L82.8892 486.054L82.7452 476.744H176.782V498.657H61V477.747L121.771 411.292H159.502Z" fill="url(#paint3_linear_2796_10603)"/>
<path d="M248.257 521C235.968 521 225.263 518.708 216.143 514.125C207.022 509.447 199.966 502.906 194.974 494.504C190.077 486.101 187.629 476.267 187.629 465C187.629 453.733 190.077 443.899 194.974 435.496C199.966 427.094 207.022 420.601 216.143 416.018C225.263 411.339 235.968 409 248.257 409C260.449 409 271.058 411.339 280.082 416.018C289.203 420.601 296.259 427.094 301.252 435.496C306.244 443.899 308.74 453.733 308.74 465C308.74 476.267 306.244 486.101 301.252 494.504C296.259 502.906 289.203 509.447 280.082 514.125C271.058 518.708 260.449 521 248.257 521ZM248.257 496.939C257.953 496.939 265.49 494.17 270.866 488.632C276.242 482.998 278.93 475.121 278.93 465C278.93 454.783 276.242 446.906 270.866 441.368C265.49 435.83 257.953 433.061 248.257 433.061C238.56 433.061 230.976 435.83 225.503 441.368C220.031 446.906 217.295 454.783 217.295 465C217.295 475.121 220.031 482.998 225.503 488.632C230.976 494.17 238.56 496.939 248.257 496.939Z" fill="url(#paint4_linear_2796_10603)"/>
<path d="M416.72 411.292L417.001 519L387.198 518.708V424.325H396.271L340.108 486.054L339.964 476.744H434.001V499L318.219 498.657V477.747L378.99 411.292H416.72Z" fill="url(#paint5_linear_2796_10603)"/>
<defs>
<linearGradient id="paint0_linear_2796_10603" x1="330.5" y1="365" x2="254.5" y2="519" gradientUnits="userSpaceOnUse">
<stop stop-color="#FFE8A3"/>
<stop offset="1" stop-color="#F4D36F"/>
</linearGradient>
<linearGradient id="paint1_linear_2796_10603" x1="330.499" y1="365" x2="254.499" y2="519" gradientUnits="userSpaceOnUse">
<stop stop-color="#FFE8A3"/>
<stop offset="1" stop-color="#F4D36F"/>
</linearGradient>
<linearGradient id="paint2_linear_2796_10603" x1="330.5" y1="365" x2="254.5" y2="519" gradientUnits="userSpaceOnUse">
<stop stop-color="#FFE8A3"/>
<stop offset="1" stop-color="#F4D36F"/>
</linearGradient>
<linearGradient id="paint3_linear_2796_10603" x1="270" y1="538.5" x2="351" y2="313.5" gradientUnits="userSpaceOnUse">
<stop stop-color="#E1B73A"/>
<stop offset="0.46875" stop-color="#FFCC33"/>
<stop offset="0.984375" stop-color="#FFCC33"/>
</linearGradient>
<linearGradient id="paint4_linear_2796_10603" x1="269.999" y1="538.5" x2="350.999" y2="313.5" gradientUnits="userSpaceOnUse">
<stop stop-color="#E1B73A"/>
<stop offset="0.46875" stop-color="#FFCC33"/>
<stop offset="0.984375" stop-color="#FFCC33"/>
</linearGradient>
<linearGradient id="paint5_linear_2796_10603" x1="270.001" y1="538.5" x2="351.001" y2="313.5" gradientUnits="userSpaceOnUse">
<stop stop-color="#E1B73A"/>
<stop offset="0.46875" stop-color="#FFCC33"/>
<stop offset="0.984375" stop-color="#FFCC33"/>
</linearGradient>
</defs>
</svg>
