<svg width="17" height="17" viewBox="0 0 17 17" fill="none" xmlns="http://www.w3.org/2000/svg">
<path id="Vector" d="M16.4852 11.4064C14.8801 15.8165 10.004 18.0903 5.59388 16.4852C1.18309 14.8801 -1.09066 10.0038 0.515129 5.59364C2.12021 1.18346 6.99639 -1.09034 11.4065 0.514778C15.8166 2.1199 18.0903 6.99618 16.4852 11.4064ZM9.49822 8.86338C9.55025 8.73139 9.5753 8.5903 9.57192 8.44847C9.56854 8.30663 9.53678 8.1669 9.47853 8.03753C9.42028 7.90816 9.3367 7.79177 9.23274 7.69522C9.12878 7.59868 9.00654 7.52393 8.87322 7.47539C8.73991 7.42685 8.59822 7.4055 8.45652 7.4126C8.31482 7.41971 8.17598 7.45512 8.04819 7.51675C7.9204 7.57838 7.80624 7.66498 7.71246 7.77144C7.61867 7.8779 7.54716 8.00207 7.50214 8.13662C7.41425 8.39927 7.43239 8.68586 7.5527 8.93534C7.673 9.18481 7.88597 9.37745 8.14622 9.4722C8.40647 9.56696 8.69344 9.55635 8.94598 9.44263C9.19852 9.3289 9.39667 9.12106 9.49822 8.86338ZM6.41201 11.1315C6.51605 10.8675 6.56617 10.5854 6.55941 10.3017C6.55264 10.018 6.48913 9.73855 6.37263 9.47981C6.25612 9.22108 6.08897 8.98829 5.88105 8.7952C5.67313 8.6021 5.42864 8.45261 5.16201 8.35553C4.89538 8.25845 4.612 8.21575 4.32861 8.22996C4.04521 8.24417 3.76753 8.31499 3.51194 8.43825C3.25636 8.56151 3.02805 8.73471 2.84048 8.94764C2.65291 9.16056 2.50989 9.40889 2.41984 9.67799C2.24406 10.2033 2.28034 10.7765 2.52096 11.2754C2.76157 11.7744 3.1875 12.1596 3.70801 12.3492C4.22851 12.5387 4.80243 12.5174 5.30752 12.29C5.8126 12.0626 6.20891 11.6469 6.41201 11.1315ZM8.59226 5.14242C8.69631 4.87843 8.74642 4.59627 8.73966 4.31259C8.73289 4.02891 8.66938 3.74946 8.55288 3.49072C8.43637 3.23198 8.26923 2.9992 8.0613 2.8061C7.85338 2.61301 7.60889 2.46351 7.34226 2.36643C7.07563 2.26935 6.79226 2.22666 6.50886 2.24087C6.22546 2.25507 5.94778 2.3259 5.69219 2.44916C5.43661 2.57242 5.2083 2.74562 5.02073 2.95854C4.83316 3.17147 4.69014 3.4198 4.60009 3.68889C4.42431 4.2142 4.46059 4.78738 4.70121 5.28633C4.94183 5.78528 5.36776 6.17055 5.88826 6.36006C6.40876 6.54958 6.98269 6.52835 7.48777 6.30091C7.99285 6.07346 8.38916 5.65778 8.59226 5.14242ZM14.5819 7.32202C14.6837 7.05845 14.7319 6.77724 14.7237 6.49482C14.7155 6.21241 14.6511 5.93447 14.5342 5.67726C14.4172 5.42005 14.2502 5.18873 14.0429 4.99684C13.8355 4.80494 13.592 4.65633 13.3265 4.55968C13.061 4.46304 12.7789 4.42031 12.4967 4.43399C12.2145 4.44766 11.9379 4.51748 11.683 4.63935C11.4281 4.76121 11.2001 4.93269 11.0122 5.14373C10.8244 5.35478 10.6805 5.60117 10.5891 5.86848C10.4133 6.39379 10.4496 6.96698 10.6902 7.46592C10.9308 7.96487 11.3567 8.35014 11.8772 8.53966C12.3977 8.72917 12.9717 8.70794 13.4767 8.4805C13.9818 8.25306 14.3781 7.83737 14.5812 7.32202H14.5819ZM12.4017 13.3111C12.5043 13.0473 12.5532 12.7657 12.5455 12.4828C12.5379 12.1999 12.4737 11.9214 12.357 11.6636C12.2402 11.4058 12.0731 11.1739 11.8654 10.9816C11.6578 10.7892 11.4139 10.6403 11.1479 10.5435C10.8819 10.4468 10.5993 10.4041 10.3167 10.418C10.034 10.432 9.75694 10.5022 9.50179 10.6247C9.24665 10.7472 9.01853 10.9194 8.83084 11.1312C8.64315 11.3431 8.49967 11.5902 8.40881 11.8583C8.23214 12.3839 8.26796 12.9578 8.50861 13.4575C8.74926 13.9571 9.17568 14.3428 9.69683 14.5324C10.218 14.7219 10.7926 14.7002 11.2979 14.4719C11.8033 14.2436 12.1994 13.8275 12.4017 13.3111Z" fill="white"/>
</svg>
