<svg width="201" height="258" viewBox="0 0 201 258" fill="none" xmlns="http://www.w3.org/2000/svg">
<g clip-path="url(#clip0_2699_9500)">
<path fill-rule="evenodd" clip-rule="evenodd" d="M155.391 0H132.236L132.176 85.4258L155.497 56.2478L155.391 0ZM179.507 26.2383L200.5 0H179.507V26.2383ZM106.769 117.207V29.8683L106.767 21.4012L79.352 52.2464V151.49L53.8962 183.262L54.057 93.3871V80.7067L29.892 107.846V213.268L57.111 179.243L101.277 258H182.113L102.478 122.532L106.769 117.207ZM-70.5 186.086V230.688L0.538803 159.463L0.446198 156.756L0.180496 140.112L0.231598 140.051V111.981L-70.5 186.086ZM0.3125 250.312L0.23069 201.875L-52.584 258H-5.84185L0.3125 250.312ZM-70.5 139.1V92.8991L0.231598 20.4409V68.2229L-70.5 139.1ZM-24.856 0H-70.5V45.8107L-24.856 0Z" fill="currentColor"/>
</g>
<defs>
<clipPath id="clip0_2699_9500">
<rect width="200" height="258" fill="black" transform="translate(0.5)"/>
</clipPath>
</defs>
</svg>
