<svg width="205" height="58" viewBox="0 0 205 58" fill="none" xmlns="http://www.w3.org/2000/svg">
<circle cx="22" cy="22" r="22" fill="#0C0C0C"/>
<path d="M15.6203 38V20H21.1643V33.608L19.7243 32.432L29.3003 20H35.1563L20.6843 38H15.6203ZM24.2363 29.576L28.3403 26.264L35.4203 38H29.0843L24.2363 29.576ZM37.9124 38V24.248H43.3364V34.952L42.2564 34.592L48.7364 24.248H55.7684V38H50.3684V26.936L51.4244 27.32L44.7524 38H37.9124ZM59.6961 24.248H65.1921V38H59.6961V24.248ZM71.0001 24.248H76.4961V38H71.0001V24.248ZM62.8641 28.904H73.0401V32.984H62.8641V28.904ZM88.7772 38.408C87.0012 38.408 85.4412 38.104 84.0972 37.496C82.7532 36.888 81.7052 36.04 80.9532 34.952C80.2012 33.848 79.8252 32.576 79.8252 31.136C79.8252 29.664 80.2012 28.384 80.9532 27.296C81.7052 26.192 82.7532 25.344 84.0972 24.752C85.4412 24.144 87.0092 23.84 88.8012 23.84C90.5772 23.84 92.1372 24.144 93.4812 24.752C94.8252 25.344 95.8652 26.192 96.6012 27.296C97.3532 28.384 97.7292 29.664 97.7292 31.136C97.7292 32.576 97.3532 33.848 96.6012 34.952C95.8652 36.04 94.8252 36.888 93.4812 37.496C92.1372 38.104 90.5692 38.408 88.7772 38.408ZM88.8012 34.376C89.5212 34.376 90.1292 34.248 90.6252 33.992C91.1372 33.736 91.5212 33.368 91.7772 32.888C92.0492 32.392 92.1852 31.808 92.1852 31.136C92.1852 30.448 92.0492 29.864 91.7772 29.384C91.5212 28.888 91.1372 28.512 90.6252 28.256C90.1292 28 89.5212 27.872 88.8012 27.872C88.0812 27.872 87.4652 28 86.9532 28.256C86.4412 28.512 86.0492 28.888 85.7772 29.384C85.5212 29.864 85.3932 30.44 85.3932 31.112C85.3932 31.8 85.5212 32.392 85.7772 32.888C86.0492 33.368 86.4412 33.736 86.9532 33.992C87.4652 34.248 88.0812 34.376 88.8012 34.376ZM104.129 22.424H109.721V38H104.129V22.424ZM97.4566 20H116.393V24.968H97.4566V20ZM125.056 38.408C123.28 38.408 121.72 38.104 120.376 37.496C119.032 36.888 117.984 36.04 117.232 34.952C116.48 33.848 116.104 32.576 116.104 31.136C116.104 29.664 116.48 28.384 117.232 27.296C117.984 26.192 119.032 25.344 120.376 24.752C121.72 24.144 123.288 23.84 125.08 23.84C126.856 23.84 128.416 24.144 129.76 24.752C131.104 25.344 132.144 26.192 132.88 27.296C133.632 28.384 134.008 29.664 134.008 31.136C134.008 32.576 133.632 33.848 132.88 34.952C132.144 36.04 131.104 36.888 129.76 37.496C128.416 38.104 126.848 38.408 125.056 38.408ZM125.08 34.376C125.8 34.376 126.408 34.248 126.904 33.992C127.416 33.736 127.8 33.368 128.056 32.888C128.328 32.392 128.464 31.808 128.464 31.136C128.464 30.448 128.328 29.864 128.056 29.384C127.8 28.888 127.416 28.512 126.904 28.256C126.408 28 125.8 27.872 125.08 27.872C124.36 27.872 123.744 28 123.232 28.256C122.72 28.512 122.328 28.888 122.056 29.384C121.8 29.864 121.672 30.44 121.672 31.112C121.672 31.8 121.8 32.392 122.056 32.888C122.328 33.368 122.72 33.736 123.232 33.992C123.744 34.248 124.36 34.376 125.08 34.376ZM142.837 34.424C140.885 34.424 139.389 33.88 138.349 32.792C137.309 31.704 136.789 30.128 136.789 28.064V24.248H142.285V27.824C142.285 29.456 143.045 30.272 144.565 30.272C145.285 30.272 145.965 30.064 146.605 29.648C147.261 29.232 147.797 28.624 148.213 27.824L148.501 31.256C148.133 32.248 147.445 33.024 146.437 33.584C145.445 34.144 144.245 34.424 142.837 34.424ZM147.661 38V24.248H153.157V38H147.661ZM157.107 38V24.248H162.603V33.776L161.019 33.224L168.315 24.248H174.027L161.955 38H157.107ZM168.243 38L164.427 31.328L168.627 28.52L174.387 38H168.243ZM188.319 38L187.671 33.104L188.343 31.136L187.671 29.192L188.319 24.248H194.031L193.119 31.112L194.031 38H188.319ZM189.543 31.136C189.351 32.592 188.927 33.872 188.271 34.976C187.631 36.064 186.799 36.912 185.775 37.52C184.767 38.112 183.607 38.408 182.295 38.408C180.967 38.408 179.791 38.104 178.767 37.496C177.743 36.888 176.943 36.04 176.367 34.952C175.807 33.848 175.527 32.576 175.527 31.136C175.527 29.664 175.807 28.384 176.367 27.296C176.943 26.192 177.743 25.344 178.767 24.752C179.791 24.144 180.967 23.84 182.295 23.84C183.607 23.84 184.767 24.136 185.775 24.728C186.799 25.32 187.639 26.168 188.295 27.272C188.951 28.36 189.367 29.648 189.543 31.136ZM181.071 31.136C181.071 31.744 181.191 32.28 181.431 32.744C181.687 33.208 182.039 33.576 182.487 33.848C182.935 34.12 183.447 34.256 184.023 34.256C184.615 34.256 185.183 34.12 185.727 33.848C186.271 33.576 186.751 33.208 187.167 32.744C187.583 32.28 187.887 31.744 188.079 31.136C187.887 30.528 187.583 29.992 187.167 29.528C186.751 29.048 186.271 28.672 185.727 28.4C185.183 28.128 184.615 27.992 184.023 27.992C183.447 27.992 182.935 28.128 182.487 28.4C182.039 28.672 181.687 29.048 181.431 29.528C181.191 29.992 181.071 30.528 181.071 31.136Z" fill="white"/>
</svg>
