<svg width="216" height="30" viewBox="0 0 216 30" fill="none" xmlns="http://www.w3.org/2000/svg">
<path d="M4.1665 8.75H20.8332M4.1665 15H20.8332M4.1665 21.25H20.8332" stroke="white" stroke-width="2" stroke-linecap="round" stroke-linejoin="round"/>
<path d="M36.6203 24V6H42.1643V19.608L40.7243 18.432L50.3003 6H56.1563L41.6843 24H36.6203ZM45.2363 15.576L49.3403 12.264L56.4203 24H50.0843L45.2363 15.576ZM58.9124 24V10.248H64.3364V20.952L63.2564 20.592L69.7364 10.248H76.7684V24H71.3684V12.936L72.4244 13.32L65.7524 24H58.9124ZM80.6961 10.248H86.1921V24H80.6961V10.248ZM92.0001 10.248H97.4961V24H92.0001V10.248ZM83.8641 14.904H94.0401V18.984H83.8641V14.904ZM109.777 24.408C108.001 24.408 106.441 24.104 105.097 23.496C103.753 22.888 102.705 22.04 101.953 20.952C101.201 19.848 100.825 18.576 100.825 17.136C100.825 15.664 101.201 14.384 101.953 13.296C102.705 12.192 103.753 11.344 105.097 10.752C106.441 10.144 108.009 9.84 109.801 9.84C111.577 9.84 113.137 10.144 114.481 10.752C115.825 11.344 116.865 12.192 117.601 13.296C118.353 14.384 118.729 15.664 118.729 17.136C118.729 18.576 118.353 19.848 117.601 20.952C116.865 22.04 115.825 22.888 114.481 23.496C113.137 24.104 111.569 24.408 109.777 24.408ZM109.801 20.376C110.521 20.376 111.129 20.248 111.625 19.992C112.137 19.736 112.521 19.368 112.777 18.888C113.049 18.392 113.185 17.808 113.185 17.136C113.185 16.448 113.049 15.864 112.777 15.384C112.521 14.888 112.137 14.512 111.625 14.256C111.129 14 110.521 13.872 109.801 13.872C109.081 13.872 108.465 14 107.953 14.256C107.441 14.512 107.049 14.888 106.777 15.384C106.521 15.864 106.393 16.44 106.393 17.112C106.393 17.8 106.521 18.392 106.777 18.888C107.049 19.368 107.441 19.736 107.953 19.992C108.465 20.248 109.081 20.376 109.801 20.376ZM125.129 8.424H130.721V24H125.129V8.424ZM118.457 6H137.393V10.968H118.457V6ZM146.056 24.408C144.28 24.408 142.72 24.104 141.376 23.496C140.032 22.888 138.984 22.04 138.232 20.952C137.48 19.848 137.104 18.576 137.104 17.136C137.104 15.664 137.48 14.384 138.232 13.296C138.984 12.192 140.032 11.344 141.376 10.752C142.72 10.144 144.288 9.84 146.08 9.84C147.856 9.84 149.416 10.144 150.76 10.752C152.104 11.344 153.144 12.192 153.88 13.296C154.632 14.384 155.008 15.664 155.008 17.136C155.008 18.576 154.632 19.848 153.88 20.952C153.144 22.04 152.104 22.888 150.76 23.496C149.416 24.104 147.848 24.408 146.056 24.408ZM146.08 20.376C146.8 20.376 147.408 20.248 147.904 19.992C148.416 19.736 148.8 19.368 149.056 18.888C149.328 18.392 149.464 17.808 149.464 17.136C149.464 16.448 149.328 15.864 149.056 15.384C148.8 14.888 148.416 14.512 147.904 14.256C147.408 14 146.8 13.872 146.08 13.872C145.36 13.872 144.744 14 144.232 14.256C143.72 14.512 143.328 14.888 143.056 15.384C142.8 15.864 142.672 16.44 142.672 17.112C142.672 17.8 142.8 18.392 143.056 18.888C143.328 19.368 143.72 19.736 144.232 19.992C144.744 20.248 145.36 20.376 146.08 20.376ZM163.837 20.424C161.885 20.424 160.389 19.88 159.349 18.792C158.309 17.704 157.789 16.128 157.789 14.064V10.248H163.285V13.824C163.285 15.456 164.045 16.272 165.565 16.272C166.285 16.272 166.965 16.064 167.605 15.648C168.261 15.232 168.797 14.624 169.213 13.824L169.501 17.256C169.133 18.248 168.445 19.024 167.437 19.584C166.445 20.144 165.245 20.424 163.837 20.424ZM168.661 24V10.248H174.157V24H168.661ZM178.107 24V10.248H183.603V19.776L182.019 19.224L189.315 10.248H195.027L182.955 24H178.107ZM189.243 24L185.427 17.328L189.627 14.52L195.387 24H189.243ZM209.319 24L208.671 19.104L209.343 17.136L208.671 15.192L209.319 10.248H215.031L214.119 17.112L215.031 24H209.319ZM210.543 17.136C210.351 18.592 209.927 19.872 209.271 20.976C208.631 22.064 207.799 22.912 206.775 23.52C205.767 24.112 204.607 24.408 203.295 24.408C201.967 24.408 200.791 24.104 199.767 23.496C198.743 22.888 197.943 22.04 197.367 20.952C196.807 19.848 196.527 18.576 196.527 17.136C196.527 15.664 196.807 14.384 197.367 13.296C197.943 12.192 198.743 11.344 199.767 10.752C200.791 10.144 201.967 9.84 203.295 9.84C204.607 9.84 205.767 10.136 206.775 10.728C207.799 11.32 208.639 12.168 209.295 13.272C209.951 14.36 210.367 15.648 210.543 17.136ZM202.071 17.136C202.071 17.744 202.191 18.28 202.431 18.744C202.687 19.208 203.039 19.576 203.487 19.848C203.935 20.12 204.447 20.256 205.023 20.256C205.615 20.256 206.183 20.12 206.727 19.848C207.271 19.576 207.751 19.208 208.167 18.744C208.583 18.28 208.887 17.744 209.079 17.136C208.887 16.528 208.583 15.992 208.167 15.528C207.751 15.048 207.271 14.672 206.727 14.4C206.183 14.128 205.615 13.992 205.023 13.992C204.447 13.992 203.935 14.128 203.487 14.4C203.039 14.672 202.687 15.048 202.431 15.528C202.191 15.992 202.071 16.528 202.071 17.136Z" fill="white"/>
</svg>
