<svg width="121" height="22" viewBox="0 0 121 22" fill="none" xmlns="http://www.w3.org/2000/svg">
<path fill-rule="evenodd" clip-rule="evenodd" d="M12.0086 -0.0078125H10.7777L11.0064 4.13317L12.1191 2.77786L12.0086 -0.0078125ZM13.5171 1.07489L14.406 -0.0078125H13.4573L13.5171 1.07489ZM9.59499 5.85241L9.42396 1.54027L9.42384 1.10013L7.96656 2.69784L8.21144 7.55008L6.7992 9.29853L6.62198 4.83035L6.62198 4.17199L5.13488 5.8024L5.33578 11.0405L6.78364 9.27688L9.13143 13.3565H13.4286L9.1953 6.33927L9.59499 5.85241ZM0 7.19581V4.80548L3.76 1.05219V3.52439L0 7.19581ZM0 9.6296V11.9394L3.77131 8.25017L3.78336 8.47999L3.77045 8.11215L3.75632 7.25001L3.76 7.24572V5.79103L0 9.6296ZM3.93315 12.749L3.8491 10.3537L0.972248 13.3565H3.43446L3.93315 12.749ZM0 -0.0078125H2.42754L0 2.3663V-0.0078125ZM15.1187 4.0297V13.3565H19.7577L23.5665 7.25959V13.3565H27.2289V4.0297H22.4597L18.7973 9.87588V4.0297H15.1187ZM29.8927 4.0297H33.6201V7.18746H37.5592V4.0297H41.2866V13.3565H37.5592V9.95456H33.6201V13.3565H29.8927V4.0297ZM60.0273 3.75299H55.5022V0.0116085H68.3448V3.75299H63.8198V13.3565H60.0273V3.75299ZM86.2795 10.9312C84.9556 10.9312 83.941 10.5622 83.2357 9.82434C82.5303 9.08645 82.1777 8.01759 82.1777 6.61776V4.0297H85.9051V6.45499C85.9051 7.56183 86.4205 8.11525 87.4514 8.11525C87.9397 8.11525 88.4009 7.97418 88.835 7.69205C89.1033 7.52189 89.342 7.30436 89.5512 7.03946V4.0297H93.2786V13.3565H89.5512V9.71802C89.3238 9.96584 89.0471 10.1803 88.721 10.3615C88.0483 10.7413 87.2344 10.9312 86.2795 10.9312ZM95.9579 4.0297V13.3565H99.2458L101.828 10.4149L103.51 13.3565H107.677L104.229 7.68032L107.433 4.0297H103.559L99.6853 8.79567V4.0297H95.9579ZM117.126 13.3565L116.896 11.6172C116.493 12.2073 115.994 12.6785 115.401 13.0309C114.717 13.4324 113.93 13.6332 113.041 13.6332C112.14 13.6332 111.342 13.427 110.648 13.0146C109.953 12.6023 109.411 12.0272 109.02 11.2893C108.64 10.5405 108.45 9.67785 108.45 8.70123C108.45 7.7029 108.64 6.83479 109.02 6.0969C109.411 5.34815 109.953 4.77302 110.648 4.37152C111.342 3.95917 112.14 3.75299 113.041 3.75299C113.93 3.75299 114.717 3.95374 115.401 4.35524C115.99 4.69622 116.49 5.16243 116.9 5.75385L117.126 4.0297H121L120.381 8.68495L121 13.3565H117.126ZM112.21 8.70123C112.21 9.11358 112.292 9.4771 112.455 9.79179C112.628 10.1065 112.867 10.3561 113.171 10.5405C113.475 10.725 113.822 10.8172 114.212 10.8172C114.614 10.8172 114.999 10.725 115.368 10.5405C115.737 10.3561 116.063 10.1065 116.345 9.79179C116.627 9.4771 116.833 9.11358 116.963 8.70123C116.833 8.28888 116.627 7.92535 116.345 7.61066C116.063 7.28512 115.737 7.03012 115.368 6.84564C114.999 6.66117 114.614 6.56893 114.212 6.56893C113.822 6.56893 113.475 6.66117 113.171 6.84564C112.867 7.03012 112.628 7.28512 112.455 7.61066C112.292 7.92535 112.21 8.28888 112.21 8.70123ZM49.3576 13.6025C48.1531 13.6025 47.0951 13.3963 46.1836 12.984C45.2721 12.5716 44.5613 11.9965 44.0513 11.2586C43.5413 10.5099 43.2863 9.6472 43.2863 8.67057C43.2863 7.67225 43.5413 6.80414 44.0513 6.06625C44.5613 5.3175 45.2721 4.74238 46.1836 4.34087C47.0951 3.92852 48.1585 3.72235 49.3739 3.72235C50.5784 3.72235 51.6364 3.92852 52.5479 4.34087C53.4594 4.74238 54.1648 5.3175 54.6639 6.06625C55.174 6.80414 55.429 7.67225 55.429 8.67057C55.429 9.6472 55.174 10.5099 54.6639 11.2586C54.1648 11.9965 53.4594 12.5716 52.5479 12.984C51.6364 13.3963 50.573 13.6025 49.3576 13.6025ZM49.3739 10.868C49.8622 10.868 50.2746 10.7812 50.611 10.6075C50.9582 10.4339 51.2186 10.1843 51.3923 9.8588C51.5767 9.52241 51.669 9.12633 51.669 8.67057C51.669 8.20397 51.5767 7.80789 51.3923 7.48235C51.2186 7.14596 50.9582 6.89095 50.611 6.71733C50.2746 6.5437 49.8622 6.45689 49.3739 6.45689C48.8856 6.45689 48.4678 6.5437 48.1206 6.71733C47.7733 6.89095 47.5075 7.14596 47.323 7.48235C47.1494 7.80789 47.0626 8.19854 47.0626 8.6543C47.0626 9.1209 47.1494 9.52241 47.323 9.8588C47.5075 10.1843 47.7733 10.4339 48.1206 10.6075C48.4678 10.7812 48.8856 10.868 49.3739 10.868ZM74.158 13.6025C72.9535 13.6025 71.8955 13.3963 70.984 12.984C70.0725 12.5716 69.3617 11.9965 68.8517 11.2586C68.3417 10.5099 68.0867 9.6472 68.0867 8.67057C68.0867 7.67225 68.3417 6.80414 68.8517 6.06625C69.3617 5.3175 70.0725 4.74238 70.984 4.34087C71.8955 3.92852 72.9589 3.72235 74.1743 3.72235C75.3788 3.72235 76.4368 3.92852 77.3483 4.34087C78.2598 4.74238 78.9652 5.3175 79.4643 6.06625C79.9744 6.80414 80.2294 7.67225 80.2294 8.67057C80.2294 9.6472 79.9744 10.5099 79.4643 11.2586C78.9652 11.9965 78.2598 12.5716 77.3483 12.984C76.4368 13.3963 75.3734 13.6025 74.158 13.6025ZM74.1743 10.868C74.6626 10.868 75.075 10.7812 75.4114 10.6075C75.7586 10.4339 76.019 10.1843 76.1926 9.8588C76.3771 9.52241 76.4694 9.12633 76.4694 8.67057C76.4694 8.20397 76.3771 7.80789 76.1926 7.48235C76.019 7.14596 75.7586 6.89095 75.4114 6.71733C75.075 6.5437 74.6626 6.45689 74.1743 6.45689C73.686 6.45689 73.2682 6.5437 72.921 6.71733C72.5737 6.89095 72.3079 7.14596 72.1234 7.48235C71.9498 7.80789 71.863 8.19854 71.863 8.6543C71.863 9.1209 71.9498 9.52241 72.1234 9.8588C72.3079 10.1843 72.5737 10.4339 72.921 10.6075C73.2682 10.7812 73.686 10.868 74.1743 10.868ZM78.1879 20.0799V22.0091H79.429V20.0907C79.6045 20.3674 79.8237 20.5864 80.0868 20.7477C80.3672 20.915 80.6859 20.9986 81.0431 20.9986C81.4184 20.9986 81.7462 20.9127 82.0265 20.7409C82.3069 20.5691 82.5239 20.3317 82.6776 20.0288C82.8359 19.7213 82.915 19.3641 82.915 18.9572C82.915 18.5503 82.8359 18.1953 82.6776 17.8924C82.5239 17.5849 82.3069 17.3453 82.0265 17.1735C81.7462 17.0017 81.4184 16.9158 81.0431 16.9158C80.6859 16.9158 80.3672 17.0017 80.0868 17.1735C79.8237 17.3305 79.6045 17.5473 79.429 17.8237V15.6679H78.1879V17.8237C78.0124 17.5473 77.7931 17.3305 77.53 17.1735C77.2497 17.0017 76.9309 16.9158 76.5737 16.9158C76.203 16.9158 75.8752 17.0017 75.5903 17.1735C75.31 17.3453 75.0907 17.5849 74.9324 17.8924C74.7787 18.1953 74.7019 18.5503 74.7019 18.9572C74.7019 19.3641 74.7787 19.7213 74.9324 20.0288C75.0907 20.3317 75.31 20.5691 75.5903 20.7409C75.8752 20.9127 76.203 20.9986 76.5737 20.9986C76.9309 20.9986 77.2474 20.915 77.5232 20.7477C77.7897 20.5843 78.0113 20.3617 78.1879 20.0799ZM81.5179 18.4078C81.5993 18.5661 81.64 18.7492 81.64 18.9572C81.64 19.1652 81.5993 19.3506 81.5179 19.5133C81.4365 19.6716 81.3235 19.7982 81.1788 19.8931C81.0386 19.9835 80.8713 20.0288 80.6769 20.0288C80.383 20.0288 80.1185 19.9293 79.8834 19.7303C79.6528 19.5269 79.4832 19.2692 79.3747 18.9572C79.4832 18.6407 79.6528 18.383 79.8834 18.184C80.1185 17.9851 80.383 17.8856 80.6769 17.8856C80.8713 17.8856 81.0386 17.9331 81.1788 18.028C81.3235 18.1185 81.4365 18.2451 81.5179 18.4078ZM76.0922 19.5133C76.0153 19.3506 75.9769 19.1652 75.9769 18.9572C75.9769 18.7492 76.0153 18.5661 76.0922 18.4078C76.1736 18.2451 76.2866 18.1185 76.4313 18.028C76.576 17.9331 76.7433 17.8856 76.9332 17.8856C77.2316 17.8856 77.4961 17.9851 77.7267 18.184C77.9618 18.383 78.1336 18.6407 78.2421 18.9572C78.1336 19.2692 77.9618 19.5269 77.7267 19.7303C77.4961 19.9293 77.2316 20.0288 76.9332 20.0288C76.7433 20.0288 76.576 19.9835 76.4313 19.8931C76.2866 19.7982 76.1736 19.6716 76.0922 19.5133ZM0 17.0243H1.25469V17.8365C1.44012 17.5539 1.67071 17.3329 1.94647 17.1735C2.24036 17.0017 2.5659 16.9158 2.92309 16.9158C3.30289 16.9158 3.63521 17.0017 3.92006 17.1735C4.20943 17.3453 4.4355 17.5849 4.59827 17.8924C4.76104 18.1953 4.84243 18.5503 4.84243 18.9572C4.84243 19.3641 4.76104 19.7213 4.59827 20.0288C4.4355 20.3317 4.20943 20.5691 3.92006 20.7409C3.63521 20.9127 3.30289 20.9986 2.92309 20.9986C2.56138 20.9986 2.23584 20.915 1.94647 20.7477C1.6717 20.5819 1.44111 20.3552 1.25469 20.0675V22.0091H0V17.0243ZM3.56739 18.9572C3.56739 18.7492 3.52444 18.5661 3.43853 18.4078C3.35262 18.2451 3.23281 18.1185 3.07908 18.028C2.92987 17.9331 2.75806 17.8856 2.56364 17.8856C2.3647 17.8856 2.1748 17.9331 1.99394 18.028C1.81308 18.1185 1.65483 18.2451 1.51919 18.4078C1.38807 18.5661 1.28634 18.7492 1.214 18.9572C1.28634 19.1652 1.38807 19.3506 1.51919 19.5133C1.65483 19.6716 1.81308 19.7982 1.99394 19.8931C2.1748 19.9835 2.3647 20.0288 2.56364 20.0288C2.75806 20.0288 2.92987 19.9835 3.07908 19.8931C3.23281 19.7982 3.35262 19.6716 3.43853 19.5133C3.52444 19.3506 3.56739 19.1652 3.56739 18.9572ZM8.27158 20.9986C7.81039 20.9986 7.39668 20.9127 7.03045 20.7409C6.66874 20.5691 6.38389 20.3294 6.17591 20.022C5.96792 19.7145 5.86393 19.3551 5.86393 18.9436C5.86393 18.5412 5.9634 18.1885 6.16234 17.8856C6.36128 17.5827 6.63483 17.3453 6.98298 17.1735C7.33565 17.0017 7.73353 16.9158 8.17663 16.9158C8.62877 16.9158 9.01761 17.0152 9.34315 17.2142C9.66869 17.4131 9.91963 17.6935 10.096 18.0552C10.2723 18.4169 10.3605 18.8419 10.3605 19.3302H7.21403C7.238 19.3926 7.26724 19.4513 7.30173 19.5065C7.41929 19.6874 7.58658 19.8253 7.80361 19.9202C8.02516 20.0152 8.29418 20.0627 8.61068 20.0627C8.90005 20.0627 9.18942 20.0242 9.47879 19.9474C9.76816 19.866 10.0281 19.753 10.2587 19.6083V20.4289C9.99649 20.6098 9.69582 20.7499 9.35671 20.8494C9.02213 20.9489 8.66042 20.9986 8.27158 20.9986ZM7.26104 18.3129C7.22219 18.3824 7.19213 18.457 7.17085 18.5367H9.16755C9.14136 18.444 9.10494 18.3604 9.0583 18.2858C8.97239 18.1366 8.8571 18.0235 8.71241 17.9467C8.56773 17.8653 8.39592 17.8246 8.19697 17.8246C7.97995 17.8246 7.79231 17.8675 7.63406 17.9534C7.47581 18.0393 7.35147 18.1592 7.26104 18.3129ZM11.5646 17.0243V20.8901H12.6836L13.886 19.5027L14.7115 20.8901H16.1425L14.6879 18.5774L16.034 17.0243H14.6843L12.8192 19.3145V17.0243H11.5646ZM19.0951 20.9986C18.6068 20.9986 18.1795 20.9127 17.8133 20.7409C17.4471 20.5691 17.1622 20.3294 16.9588 20.022C16.7553 19.7145 16.6536 19.3596 16.6536 18.9572C16.6536 18.5503 16.7553 18.1953 16.9588 17.8924C17.1622 17.5849 17.4471 17.3453 17.8133 17.1735C18.1841 17.0017 18.6113 16.9158 19.0951 16.9158C19.5834 16.9158 20.0107 17.0017 20.377 17.1735C20.7477 17.3453 21.0348 17.5849 21.2383 17.8924C21.4417 18.1953 21.5435 18.5503 21.5435 18.9572C21.5435 19.3641 21.4417 19.7213 21.2383 20.0288C21.0348 20.3317 20.7477 20.5691 20.377 20.7409C20.0107 20.9127 19.5834 20.9986 19.0951 20.9986ZM19.0951 20.0491C19.3438 20.0491 19.5541 20.0062 19.7259 19.9202C19.9022 19.8298 20.0356 19.7032 20.126 19.5404C20.221 19.3777 20.2684 19.1833 20.2684 18.9572C20.2684 18.7311 20.221 18.5367 20.126 18.3739C20.0356 18.2112 19.9022 18.0868 19.7259 18.0009C19.5541 17.9105 19.3438 17.8653 19.0951 17.8653C18.8555 17.8653 18.6475 17.9105 18.4712 18.0009C18.2948 18.0868 18.1592 18.2112 18.0643 18.3739C17.9693 18.5367 17.9218 18.7311 17.9218 18.9572C17.9218 19.1833 17.9693 19.3777 18.0643 19.5404C18.1592 19.7032 18.2948 19.8298 18.4712 19.9202C18.6475 20.0062 18.8555 20.0491 19.0951 20.0491ZM22.745 17.0243V20.8901H23.9251V18.041L25.1526 20.8901H26.3191L27.5535 18.0138V20.8901H28.7336V17.0243H26.8414L25.7446 19.7575L24.6304 17.0243H22.745ZM32.3345 20.9986C31.8734 20.9986 31.4597 20.9127 31.0934 20.7409C30.7317 20.5691 30.4469 20.3294 30.2389 20.022C30.0309 19.7145 29.9269 19.3551 29.9269 18.9436C29.9269 18.5412 30.0264 18.1885 30.2253 17.8856C30.4243 17.5827 30.6978 17.3453 31.0459 17.1735C31.3986 17.0017 31.7965 16.9158 32.2396 16.9158C32.6917 16.9158 33.0806 17.0152 33.4061 17.2142C33.7317 17.4131 33.9826 17.6935 34.1589 18.0552C34.3353 18.4169 34.4234 18.8419 34.4234 19.3302H31.277C31.301 19.3926 31.3302 19.4513 31.3647 19.5065C31.4823 19.6874 31.6496 19.8253 31.8666 19.9202C32.0881 20.0152 32.3572 20.0627 32.6737 20.0627C32.963 20.0627 33.2524 20.0242 33.5418 19.9474C33.8311 19.866 34.0911 19.753 34.3217 19.6083V20.4289C34.0595 20.6098 33.7588 20.7499 33.4197 20.8494C33.0851 20.9489 32.7234 20.9986 32.3345 20.9986ZM31.324 18.3129C31.2852 18.3824 31.2551 18.457 31.2338 18.5367H33.2305C33.2043 18.444 33.1679 18.3604 33.1213 18.2858C33.0354 18.1366 32.9201 18.0235 32.7754 17.9467C32.6307 17.8653 32.4589 17.8246 32.2599 17.8246C32.0429 17.8246 31.8553 17.8675 31.697 17.9534C31.5388 18.0393 31.4144 18.1592 31.324 18.3129ZM36.8822 17.0243H35.6275V20.8901H36.8822V19.3912H38.849V20.8901H40.1037V17.0243H38.849V18.4485H36.8822V17.0243ZM46.8673 19.9474V21.826H45.7822V20.8901H42.2894V21.826H41.1975V19.9474H41.7085C41.9647 19.6416 42.0927 19.0765 42.0927 18.2519C42.0927 18.062 42.0859 17.8653 42.0724 17.6618C42.0588 17.4538 42.0407 17.2413 42.0181 17.0243H46.162V19.9474H46.8673ZM44.9073 19.9677H42.9415C43.1398 19.616 43.2389 19.1277 43.2389 18.5028C43.2389 18.3581 43.2321 18.2021 43.2186 18.0348C43.217 18.0058 43.2148 17.9764 43.2118 17.9467H44.9073V19.9677ZM51.3682 20.0732L51.4669 20.8901H52.7758L52.5385 18.9572L52.7758 17.0243H51.4669L51.3686 17.8418C51.1826 17.5567 50.9509 17.3339 50.6734 17.1735C50.384 17.0017 50.0585 16.9158 49.6968 16.9158C49.317 16.9158 48.9824 17.0017 48.693 17.1735C48.4081 17.3453 48.1843 17.5849 48.0216 17.8924C47.8588 18.1953 47.7774 18.5503 47.7774 18.9572C47.7774 19.3641 47.8588 19.7213 48.0216 20.0288C48.1843 20.3317 48.4081 20.5691 48.693 20.7409C48.9824 20.9127 49.317 20.9986 49.6968 20.9986C50.0585 20.9986 50.384 20.915 50.6734 20.7477C50.9507 20.583 51.1823 20.3582 51.3682 20.0732ZM49.1813 19.5133C49.0954 19.3506 49.0525 19.1652 49.0525 18.9572C49.0525 18.7492 49.0954 18.5661 49.1813 18.4078C49.2672 18.2451 49.3848 18.1185 49.534 18.028C49.6877 17.9331 49.864 17.8856 50.063 17.8856C50.2619 17.8856 50.4496 17.9331 50.6259 18.028C50.8068 18.1185 50.965 18.2451 51.1006 18.4078C51.2363 18.5661 51.338 18.7492 51.4058 18.9572C51.338 19.1652 51.2363 19.3506 51.1006 19.5133C50.965 19.6716 50.8068 19.7982 50.6259 19.8931C50.4496 19.9835 50.2619 20.0288 50.063 20.0288C49.864 20.0288 49.6877 19.9835 49.534 19.8931C49.3848 19.7982 49.2672 19.6716 49.1813 19.5133ZM58.462 17.0243V19.9474H59.1741V21.826H58.0822V20.8901H54.0672V17.0243H55.3219V19.9474H57.2005V17.0243H58.462ZM60.3263 17.0243V20.8901H61.8998L63.8327 18.1322V20.8901H65.0738V17.0243H63.4529L61.5607 19.7241V17.0243H60.3263ZM66.4596 20.8901V17.0243H67.694V19.7241L69.5862 17.0243H71.2071V20.8901H69.966V18.1322L68.0331 20.8901H66.4596ZM84.131 20.8901V17.0243H85.3653V19.7241L87.2575 17.0243H88.8785V20.8901H87.6374V18.1322L85.7044 20.8901H84.131ZM95.0186 17.0243H90.9222C90.9583 17.3544 90.9855 17.6573 91.0035 17.9331C91.0216 18.2044 91.0307 18.4485 91.0307 18.6656C91.0307 19.1313 90.9809 19.4658 90.8815 19.6693C90.7865 19.8683 90.626 19.9677 90.3999 19.9677C90.3366 19.9677 90.2643 19.9609 90.1829 19.9474C90.1061 19.9293 90.0269 19.9044 89.9455 19.8728V20.7748C90.0676 20.8471 90.1942 20.8969 90.3253 20.924C90.4565 20.9557 90.5921 20.9715 90.7323 20.9715C91.2387 20.9715 91.6049 20.8042 91.831 20.4696C92.057 20.1305 92.1701 19.5879 92.1701 18.8419C92.1701 18.661 92.1633 18.4598 92.1497 18.2383C92.1445 18.1515 92.1383 18.0611 92.1311 17.967H93.7639V20.8901H95.0186V17.0243ZM96.4109 20.8901V17.0243H97.6588V18.0891H98.9067C99.2412 18.0891 99.5329 18.1479 99.7816 18.2654C100.03 18.3784 100.222 18.5412 100.358 18.7537C100.498 18.9617 100.568 19.2059 100.568 19.4862C100.568 19.7665 100.498 20.0129 100.358 20.2254C100.222 20.4379 100.03 20.603 99.7816 20.7205C99.5374 20.8336 99.2503 20.8901 98.9202 20.8901H96.4109ZM97.6588 19.9949V18.9436H98.7032C98.8931 18.9436 99.0401 18.9911 99.144 19.086C99.248 19.1765 99.3 19.3053 99.3 19.4726C99.3 19.6399 99.248 19.7688 99.144 19.8592C99.0401 19.9496 98.8931 19.9949 98.7032 19.9949H97.6588ZM101.677 17.0243V20.8901H102.857V18.041L104.084 20.8901H105.251L106.485 18.0138V20.8901H107.665V17.0243H105.773L104.676 19.7575L103.562 17.0243H101.677ZM111.3 20.9986C110.812 20.9986 110.384 20.9127 110.018 20.7409C109.652 20.5691 109.367 20.3294 109.164 20.022C108.96 19.7145 108.858 19.3596 108.858 18.9572C108.858 18.5503 108.96 18.1953 109.164 17.8924C109.367 17.5849 109.652 17.3453 110.018 17.1735C110.389 17.0017 110.816 16.9158 111.3 16.9158C111.788 16.9158 112.216 17.0017 112.582 17.1735C112.953 17.3453 113.24 17.5849 113.443 17.8924C113.647 18.1953 113.748 18.5503 113.748 18.9572C113.748 19.3641 113.647 19.7213 113.443 20.0288C113.24 20.3317 112.953 20.5691 112.582 20.7409C112.216 20.9127 111.788 20.9986 111.3 20.9986ZM111.3 20.0491C111.549 20.0491 111.759 20.0062 111.931 19.9202C112.107 19.8298 112.24 19.7032 112.331 19.5404C112.426 19.3777 112.473 19.1833 112.473 18.9572C112.473 18.7311 112.426 18.5367 112.331 18.3739C112.24 18.2112 112.107 18.0868 111.931 18.0009C111.759 17.9105 111.549 17.8653 111.3 17.8653C111.06 17.8653 110.852 17.9105 110.676 18.0009C110.5 18.0868 110.364 18.2112 110.269 18.3739C110.174 18.5367 110.127 18.7311 110.127 18.9572C110.127 19.1833 110.174 19.3777 110.269 19.5404C110.364 19.7032 110.5 19.8298 110.676 19.9202C110.852 20.0062 111.06 20.0491 111.3 20.0491ZM115.066 18.9572L114.835 20.8901H117.982C118.402 20.8901 118.735 20.7929 118.979 20.5985C119.228 20.3995 119.352 20.1328 119.352 19.7982C119.352 19.4862 119.23 19.2443 118.986 19.0725C118.85 18.9729 118.681 18.8993 118.478 18.8516C118.593 18.8048 118.694 18.7473 118.782 18.6791C119.004 18.5028 119.115 18.2745 119.115 17.9941C119.115 17.6957 119.004 17.4606 118.782 17.2888C118.565 17.1125 118.269 17.0243 117.894 17.0243H114.835L115.066 18.9572ZM116.115 20.0966H117.582C117.754 20.0966 117.88 20.0604 117.962 19.9881C118.043 19.9157 118.084 19.814 118.084 19.6829C118.084 19.5608 118.038 19.4613 117.948 19.3845C117.858 19.3076 117.713 19.2692 117.514 19.2692H116.22L116.115 20.0966ZM116.213 18.591H117.365C117.528 18.591 117.647 18.557 117.724 18.4892C117.806 18.4169 117.846 18.3219 117.846 18.2044C117.846 18.0913 117.81 17.9986 117.738 17.9263C117.665 17.854 117.552 17.8178 117.399 17.8178H116.115L116.213 18.591Z" fill="white"/>
</svg>
