<svg width="180" height="33" viewBox="0 0 180 33" fill="none" xmlns="http://www.w3.org/2000/svg">
<path fill-rule="evenodd" clip-rule="evenodd" d="M18.5006 0.217773H16.6857L17.023 6.32419L18.6635 4.32586L18.5006 0.217773ZM20.725 1.81485L22.0361 0.217773H20.6368L20.725 1.81485ZM14.9418 8.85919L14.6896 2.49904L14.6894 1.85212L12.5405 4.20809L12.9015 11.3605L10.8192 13.9386L10.5579 7.35039L10.5579 6.38179L8.36762 8.78312L8.66384 16.5063L10.7972 13.9078L14.2589 19.923H20.5949L14.3531 9.57634L14.9418 8.85919ZM0.794922 10.8417V7.31312L6.33892 1.779V5.4283L0.794922 10.8417ZM0.794922 14.4303V17.8345L6.35657 12.3939L6.37608 12.7659L6.35588 12.1902L6.33504 10.9191L6.33892 10.9145V8.77043L0.794922 14.4303ZM6.59572 19.0255L6.47183 15.4948L2.22941 19.923H5.85892L6.59572 19.0255ZM0.794922 0.217773H4.37256L0.794922 3.71666V0.217773ZM23.087 6.17096V19.923H29.927L35.543 10.9333V19.923H40.943V6.17096H33.911L28.511 14.791V6.17096H23.087ZM44.8707 6.17096H50.3667V10.827H56.1747V6.17096H61.6707V19.923H56.1747V14.907H50.3667V19.923H44.8707V6.17096ZM89.3032 5.76296H82.6312V0.246409H101.567V5.76296H94.8952V19.923H89.3032V5.76296ZM128.011 16.347C126.059 16.347 124.563 15.803 123.523 14.715C122.483 13.627 121.963 12.051 121.963 9.98697V6.17096H127.459V9.74697C127.459 11.379 128.219 12.195 129.739 12.195C130.459 12.195 131.139 11.987 131.779 11.571C132.175 11.3201 132.527 10.9993 132.835 10.6087V6.17096H138.331V19.923H132.835V14.5582C132.5 14.9236 132.092 15.2399 131.611 15.507C130.619 16.067 129.419 16.347 128.011 16.347ZM142.282 6.17096V19.923H147.13L150.937 15.5857L153.418 19.923H159.562L154.477 11.5537L159.202 6.17096H153.49L147.778 13.1982V6.17096H142.282ZM173.493 19.923L173.154 17.3584C172.559 18.2286 171.825 18.9234 170.949 19.443C169.941 20.035 168.781 20.331 167.469 20.331C166.141 20.331 164.965 20.027 163.941 19.419C162.917 18.811 162.118 17.963 161.542 16.875C160.982 15.771 160.701 14.499 160.701 13.059C160.701 11.587 160.982 10.307 161.542 9.21897C162.118 8.11497 162.917 7.26696 163.941 6.67496C164.965 6.06696 166.141 5.76296 167.469 5.76296C168.781 5.76296 169.941 6.05896 170.949 6.65096C171.819 7.15372 172.556 7.84113 173.16 8.71316L173.493 6.17096H179.205L178.294 13.035L179.205 19.923H173.493ZM166.245 13.059C166.245 13.667 166.365 14.203 166.605 14.667C166.861 15.131 167.214 15.499 167.661 15.771C168.109 16.043 168.621 16.179 169.197 16.179C169.789 16.179 170.357 16.043 170.901 15.771C171.445 15.499 171.925 15.131 172.341 14.667C172.757 14.203 173.061 13.667 173.253 13.059C173.061 12.451 172.757 11.915 172.341 11.451C171.925 10.971 171.445 10.595 170.901 10.323C170.357 10.051 169.789 9.91497 169.197 9.91497C168.621 9.91497 168.109 10.051 167.661 10.323C167.214 10.595 166.861 10.971 166.605 11.451C166.365 11.915 166.245 12.451 166.245 13.059ZM73.5721 20.2858C71.7961 20.2858 70.2361 19.9818 68.8921 19.3738C67.5481 18.7658 66.5001 17.9178 65.7481 16.8298C64.9961 15.7258 64.6201 14.4538 64.6201 13.0138C64.6201 11.5418 64.9961 10.2618 65.7481 9.17377C66.5001 8.06977 67.5481 7.22177 68.8921 6.62977C70.2361 6.02177 71.8041 5.71777 73.5961 5.71777C75.3721 5.71777 76.9321 6.02177 78.2761 6.62977C79.6201 7.22177 80.6601 8.06977 81.3961 9.17377C82.1481 10.2618 82.5241 11.5418 82.5241 13.0138C82.5241 14.4538 82.1481 15.7258 81.3961 16.8298C80.6601 17.9178 79.6201 18.7658 78.2761 19.3738C76.9321 19.9818 75.3641 20.2858 73.5721 20.2858ZM73.5961 16.2538C74.3161 16.2538 74.9241 16.1258 75.4201 15.8698C75.9321 15.6138 76.3161 15.2458 76.5721 14.7658C76.8441 14.2698 76.9801 13.6858 76.9801 13.0138C76.9801 12.3258 76.8441 11.7418 76.5721 11.2618C76.3161 10.7658 75.9321 10.3898 75.4201 10.1338C74.9241 9.87777 74.3161 9.74977 73.5961 9.74977C72.8761 9.74977 72.2601 9.87777 71.7481 10.1338C71.2361 10.3898 70.8441 10.7658 70.5721 11.2618C70.3161 11.7418 70.1881 12.3178 70.1881 12.9898C70.1881 13.6778 70.3161 14.2698 70.5721 14.7658C70.8441 15.2458 71.2361 15.6138 71.7481 15.8698C72.2601 16.1258 72.8761 16.2538 73.5961 16.2538ZM110.14 20.2858C108.364 20.2858 106.804 19.9818 105.46 19.3738C104.116 18.7658 103.068 17.9178 102.316 16.8298C101.564 15.7258 101.188 14.4538 101.188 13.0138C101.188 11.5418 101.564 10.2618 102.316 9.17377C103.068 8.06977 104.116 7.22177 105.46 6.62977C106.804 6.02177 108.372 5.71777 110.164 5.71777C111.94 5.71777 113.5 6.02177 114.844 6.62977C116.188 7.22177 117.228 8.06977 117.964 9.17377C118.715 10.2618 119.092 11.5418 119.092 13.0138C119.092 14.4538 118.715 15.7258 117.964 16.8298C117.228 17.9178 116.188 18.7658 114.844 19.3738C113.5 19.9818 111.932 20.2858 110.14 20.2858ZM110.164 16.2538C110.884 16.2538 111.492 16.1258 111.988 15.8698C112.5 15.6138 112.883 15.2458 113.14 14.7658C113.412 14.2698 113.548 13.6858 113.548 13.0138C113.548 12.3258 113.412 11.7418 113.14 11.2618C112.883 10.7658 112.5 10.3898 111.988 10.1338C111.492 9.87777 110.884 9.74977 110.164 9.74977C109.444 9.74977 108.828 9.87777 108.316 10.1338C107.804 10.3898 107.412 10.7658 107.14 11.2618C106.884 11.7418 106.756 12.3178 106.756 12.9898C106.756 13.6778 106.884 14.2698 107.14 14.7658C107.412 15.2458 107.804 15.6138 108.316 15.8698C108.828 16.1258 109.444 16.2538 110.164 16.2538ZM116.08 29.8363V32.6809H117.91V29.8522C118.169 30.2603 118.492 30.5832 118.88 30.8209C119.294 31.0676 119.764 31.1909 120.29 31.1909C120.844 31.1909 121.327 31.0643 121.74 30.8109C122.154 30.5576 122.474 30.2076 122.7 29.7609C122.934 29.3076 123.05 28.7809 123.05 28.1809C123.05 27.5809 122.934 27.0576 122.7 26.6109C122.474 26.1576 122.154 25.8043 121.74 25.5509C121.327 25.2976 120.844 25.1709 120.29 25.1709C119.764 25.1709 119.294 25.2976 118.88 25.5509C118.492 25.7824 118.169 26.102 117.91 26.5097V23.3309H116.08V26.5097C115.822 26.102 115.498 25.7824 115.11 25.5509C114.697 25.2976 114.227 25.1709 113.7 25.1709C113.154 25.1709 112.67 25.2976 112.25 25.5509C111.837 25.8043 111.514 26.1576 111.28 26.6109C111.054 27.0576 110.94 27.5809 110.94 28.1809C110.94 28.7809 111.054 29.3076 111.28 29.7609C111.514 30.2076 111.837 30.5576 112.25 30.8109C112.67 31.0643 113.154 31.1909 113.7 31.1909C114.227 31.1909 114.694 31.0676 115.1 30.8209C115.493 30.5801 115.82 30.2519 116.08 29.8363ZM120.99 27.3709C121.11 27.6043 121.17 27.8743 121.17 28.1809C121.17 28.4876 121.11 28.7609 120.99 29.0009C120.87 29.2343 120.704 29.4209 120.49 29.5609C120.284 29.6943 120.037 29.7609 119.75 29.7609C119.317 29.7609 118.927 29.6143 118.58 29.3209C118.24 29.0209 117.99 28.6409 117.83 28.1809C117.99 27.7143 118.24 27.3343 118.58 27.0409C118.927 26.7476 119.317 26.6009 119.75 26.6009C120.037 26.6009 120.284 26.6709 120.49 26.8109C120.704 26.9443 120.87 27.1309 120.99 27.3709ZM112.99 29.0009C112.877 28.7609 112.82 28.4876 112.82 28.1809C112.82 27.8743 112.877 27.6043 112.99 27.3709C113.11 27.1309 113.277 26.9443 113.49 26.8109C113.704 26.6709 113.95 26.6009 114.23 26.6009C114.67 26.6009 115.06 26.7476 115.4 27.0409C115.747 27.3343 116 27.7143 116.16 28.1809C116 28.6409 115.747 29.0209 115.4 29.3209C115.06 29.6143 114.67 29.7609 114.23 29.7609C113.95 29.7609 113.704 29.6943 113.49 29.5609C113.277 29.4209 113.11 29.2343 112.99 29.0009ZM0.794922 25.3309H2.64492V26.5286C2.91833 26.1119 3.25833 25.786 3.66492 25.5509C4.09826 25.2976 4.57826 25.1709 5.10492 25.1709C5.66492 25.1709 6.15492 25.2976 6.57492 25.5509C7.00159 25.8043 7.33492 26.1576 7.57492 26.6109C7.81492 27.0576 7.93492 27.5809 7.93492 28.1809C7.93492 28.7809 7.81492 29.3076 7.57492 29.7609C7.33492 30.2076 7.00159 30.5576 6.57492 30.8109C6.15492 31.0643 5.66492 31.1909 5.10492 31.1909C4.57159 31.1909 4.09159 31.0676 3.66492 30.8209C3.25979 30.5766 2.91979 30.2423 2.64492 29.818V32.6809H0.794922V25.3309ZM6.05492 28.1809C6.05492 27.8743 5.99159 27.6043 5.86492 27.3709C5.73826 27.1309 5.56159 26.9443 5.33492 26.8109C5.11492 26.6709 4.86159 26.6009 4.57492 26.6009C4.28159 26.6009 4.00159 26.6709 3.73492 26.8109C3.46826 26.9443 3.23492 27.1309 3.03492 27.3709C2.84159 27.6043 2.69159 27.8743 2.58492 28.1809C2.69159 28.4876 2.84159 28.7609 3.03492 29.0009C3.23492 29.2343 3.46826 29.4209 3.73492 29.5609C4.00159 29.6943 4.28159 29.7609 4.57492 29.7609C4.86159 29.7609 5.11492 29.6943 5.33492 29.5609C5.56159 29.4209 5.73826 29.2343 5.86492 29.0009C5.99159 28.7609 6.05492 28.4876 6.05492 28.1809ZM12.9911 31.1909C12.3111 31.1909 11.7011 31.0643 11.1611 30.8109C10.6278 30.5576 10.2078 30.2043 9.90109 29.7509C9.59443 29.2976 9.44109 28.7676 9.44109 28.1609C9.44109 27.5676 9.58776 27.0476 9.88109 26.6009C10.1744 26.1543 10.5778 25.8043 11.0911 25.5509C11.6111 25.2976 12.1978 25.1709 12.8511 25.1709C13.5178 25.1709 14.0911 25.3176 14.5711 25.6109C15.0511 25.9043 15.4211 26.3176 15.6811 26.8509C15.9411 27.3843 16.0711 28.0109 16.0711 28.7309H11.4318C11.4671 28.8229 11.5102 28.9095 11.5611 28.9909C11.7344 29.2576 11.9811 29.4609 12.3011 29.6009C12.6278 29.7409 13.0244 29.8109 13.4911 29.8109C13.9178 29.8109 14.3444 29.7543 14.7711 29.6409C15.1978 29.5209 15.5811 29.3543 15.9211 29.1409V30.3509C15.5344 30.6176 15.0911 30.8243 14.5911 30.9709C14.0978 31.1176 13.5644 31.1909 12.9911 31.1909ZM11.5011 27.2309C11.4438 27.3334 11.3995 27.4434 11.3681 27.5609H14.3122C14.2736 27.4243 14.2199 27.301 14.1511 27.1909C14.0244 26.9709 13.8544 26.8043 13.6411 26.6909C13.4278 26.5709 13.1744 26.5109 12.8811 26.5109C12.5611 26.5109 12.2844 26.5743 12.0511 26.7009C11.8178 26.8276 11.6344 27.0043 11.5011 27.2309ZM19.6965 25.3309H17.8465V31.0309H19.4965L21.2694 28.9853L22.4865 31.0309H24.5965L22.4518 27.621L24.4365 25.3309H22.4465L19.6965 28.7078V25.3309ZM28.9501 31.1909C28.2301 31.1909 27.6001 31.0643 27.0601 30.8109C26.5201 30.5576 26.1001 30.2043 25.8001 29.7509C25.5001 29.2976 25.3501 28.7743 25.3501 28.1809C25.3501 27.5809 25.5001 27.0576 25.8001 26.6109C26.1001 26.1576 26.5201 25.8043 27.0601 25.5509C27.6067 25.2976 28.2367 25.1709 28.9501 25.1709C29.6701 25.1709 30.3001 25.2976 30.8401 25.5509C31.3867 25.8043 31.8101 26.1576 32.1101 26.6109C32.4101 27.0576 32.5601 27.5809 32.5601 28.1809C32.5601 28.7809 32.4101 29.3076 32.1101 29.7609C31.8101 30.2076 31.3867 30.5576 30.8401 30.8109C30.3001 31.0643 29.6701 31.1909 28.9501 31.1909ZM28.9501 29.7909C29.3167 29.7909 29.6267 29.7276 29.8801 29.6009C30.1401 29.4676 30.3367 29.2809 30.4701 29.0409C30.6101 28.8009 30.6801 28.5143 30.6801 28.1809C30.6801 27.8476 30.6101 27.5609 30.4701 27.3209C30.3367 27.0809 30.1401 26.8976 29.8801 26.7709C29.6267 26.6376 29.3167 26.5709 28.9501 26.5709C28.5967 26.5709 28.2901 26.6376 28.0301 26.7709C27.7701 26.8976 27.5701 27.0809 27.4301 27.3209C27.2901 27.5609 27.2201 27.8476 27.2201 28.1809C27.2201 28.5143 27.2901 28.8009 27.4301 29.0409C27.5701 29.2809 27.7701 29.4676 28.0301 29.6009C28.2901 29.7276 28.5967 29.7909 28.9501 29.7909ZM37.1116 25.3309H34.3316V31.0309H36.0716V26.8301L37.8816 31.0309H39.6016L41.4216 26.7899V31.0309H43.1616V25.3309H40.3716L38.7545 29.361L37.1116 25.3309ZM48.4712 31.1909C47.7912 31.1909 47.1812 31.0643 46.6412 30.8109C46.1078 30.5576 45.6878 30.2043 45.3812 29.7509C45.0745 29.2976 44.9212 28.7676 44.9212 28.1609C44.9212 27.5676 45.0678 27.0476 45.3612 26.6009C45.6545 26.1543 46.0578 25.8043 46.5712 25.5509C47.0912 25.2976 47.6778 25.1709 48.3312 25.1709C48.9978 25.1709 49.5712 25.3176 50.0512 25.6109C50.5312 25.9043 50.9012 26.3176 51.1612 26.8509C51.4212 27.3843 51.5512 28.0109 51.5512 28.7309H46.9119C46.9472 28.8229 46.9903 28.9095 47.0412 28.9909C47.2145 29.2576 47.4612 29.4609 47.7812 29.6009C48.1078 29.7409 48.5045 29.8109 48.9712 29.8109C49.3978 29.8109 49.8245 29.7543 50.2512 29.6409C50.6778 29.5209 51.0612 29.3543 51.4012 29.1409V30.3509C51.0145 30.6176 50.5712 30.8243 50.0712 30.9709C49.5778 31.1176 49.0445 31.1909 48.4712 31.1909ZM46.9812 27.2309C46.9239 27.3334 46.8796 27.4434 46.8482 27.5609H49.7923C49.7536 27.4243 49.6999 27.301 49.6312 27.1909C49.5045 26.9709 49.3345 26.8043 49.1212 26.6909C48.9078 26.5709 48.6545 26.5109 48.3612 26.5109C48.0412 26.5109 47.7645 26.5743 47.5312 26.7009C47.2978 26.8276 47.1145 27.0043 46.9812 27.2309ZM55.1766 25.3309H53.3266V31.0309H55.1766V28.8209H58.0766V31.0309H59.9266V25.3309H58.0766V27.4309H55.1766V25.3309ZM69.8993 29.6409V32.4109H68.2993V31.0309H63.1493V32.4109H61.5393V29.6409H62.2928C62.6705 29.1901 62.8593 28.3568 62.8593 27.1409C62.8593 26.8609 62.8493 26.5709 62.8293 26.2709C62.8093 25.9643 62.7826 25.6509 62.7493 25.3309H68.8593V29.6409H69.8993ZM67.0093 29.6709H64.1107C64.4031 29.1524 64.5493 28.4324 64.5493 27.5109C64.5493 27.2976 64.5393 27.0676 64.5193 26.8209C64.517 26.7782 64.5137 26.7349 64.5094 26.6909H67.0093V29.6709ZM76.5357 29.8264L76.6812 31.0309H78.6112L78.2612 28.1809L78.6112 25.3309H76.6812L76.5363 26.5364C76.262 26.1159 75.9203 25.7875 75.5112 25.5509C75.0845 25.2976 74.6045 25.1709 74.0712 25.1709C73.5112 25.1709 73.0178 25.2976 72.5912 25.5509C72.1712 25.8043 71.8412 26.1576 71.6012 26.6109C71.3612 27.0576 71.2412 27.5809 71.2412 28.1809C71.2412 28.7809 71.3612 29.3076 71.6012 29.7609C71.8412 30.2076 72.1712 30.5576 72.5912 30.8109C73.0178 31.0643 73.5112 31.1909 74.0712 31.1909C74.6045 31.1909 75.0845 31.0676 75.5112 30.8209C75.92 30.5782 76.2615 30.2467 76.5357 29.8264ZM73.3112 29.0009C73.1845 28.7609 73.1212 28.4876 73.1212 28.1809C73.1212 27.8743 73.1845 27.6043 73.3112 27.3709C73.4378 27.1309 73.6112 26.9443 73.8312 26.8109C74.0578 26.6709 74.3178 26.6009 74.6112 26.6009C74.9045 26.6009 75.1812 26.6709 75.4412 26.8109C75.7078 26.9443 75.9412 27.1309 76.1412 27.3709C76.3412 27.6043 76.4912 27.8743 76.5912 28.1809C76.4912 28.4876 76.3412 28.7609 76.1412 29.0009C75.9412 29.2343 75.7078 29.4209 75.4412 29.5609C75.1812 29.6943 74.9045 29.7609 74.6112 29.7609C74.3178 29.7609 74.0578 29.6943 73.8312 29.5609C73.6112 29.4209 73.4378 29.2343 73.3112 29.0009ZM86.9952 25.3309V29.6409H88.0452V32.4109H86.4352V31.0309H80.5152V25.3309H82.3652V29.6409H85.1352V25.3309H86.9952ZM91.5641 25.3309H89.7441V31.0309H92.0641L94.9141 26.9645V31.0309H96.7441V25.3309H94.3541L91.5641 29.3117V25.3309ZM98.7875 25.3309H100.607V29.3117L103.397 25.3309H105.787V31.0309H103.957V26.9645L101.107 31.0309H98.7875V25.3309ZM124.843 25.3309H126.663V29.3117L129.453 25.3309H131.843V31.0309H130.013V26.9645L127.163 31.0309H124.843V25.3309ZM140.897 25.3309H134.857C134.91 25.8176 134.95 26.2643 134.977 26.6709C135.003 27.0709 135.017 27.4309 135.017 27.7509C135.017 28.4376 134.943 28.9309 134.797 29.2309C134.657 29.5243 134.42 29.6709 134.087 29.6709C133.993 29.6709 133.887 29.6609 133.767 29.6409C133.653 29.6143 133.537 29.5776 133.417 29.5309V30.8609C133.597 30.9676 133.783 31.0409 133.977 31.0809C134.17 31.1276 134.37 31.1509 134.577 31.1509C135.323 31.1509 135.863 30.9043 136.197 30.4109C136.53 29.9109 136.697 29.1109 136.697 28.0109C136.697 27.7443 136.687 27.4476 136.667 27.1209C136.659 26.993 136.65 26.8597 136.639 26.7209H139.047V31.0309H140.897V25.3309ZM142.95 25.3309H144.79V26.9009H146.63C147.123 26.9009 147.553 26.9876 147.92 27.1609C148.286 27.3276 148.57 27.5676 148.77 27.8809C148.976 28.1876 149.08 28.5476 149.08 28.9609C149.08 29.3743 148.976 29.7376 148.77 30.0509C148.57 30.3643 148.286 30.6076 147.92 30.7809C147.56 30.9476 147.136 31.0309 146.65 31.0309H142.95V25.3309ZM144.79 29.7109V28.1609H146.33C146.61 28.1609 146.826 28.2309 146.98 28.3709C147.133 28.5043 147.21 28.6943 147.21 28.9409C147.21 29.1876 147.133 29.3776 146.98 29.5109C146.826 29.6443 146.61 29.7109 146.33 29.7109H144.79ZM153.494 25.3309H150.714V31.0309H152.454V26.8301L154.264 31.0309H155.984L157.804 26.7899V31.0309H159.544V25.3309H156.754L155.137 29.361L153.494 25.3309ZM164.903 31.1909C164.183 31.1909 163.553 31.0643 163.013 30.8109C162.473 30.5576 162.053 30.2043 161.753 29.7509C161.453 29.2976 161.303 28.7743 161.303 28.1809C161.303 27.5809 161.453 27.0576 161.753 26.6109C162.053 26.1576 162.473 25.8043 163.013 25.5509C163.56 25.2976 164.19 25.1709 164.903 25.1709C165.623 25.1709 166.253 25.2976 166.793 25.5509C167.34 25.8043 167.763 26.1576 168.063 26.6109C168.363 27.0576 168.513 27.5809 168.513 28.1809C168.513 28.7809 168.363 29.3076 168.063 29.7609C167.763 30.2076 167.34 30.5576 166.793 30.8109C166.253 31.0643 165.623 31.1909 164.903 31.1909ZM164.903 29.7909C165.27 29.7909 165.58 29.7276 165.833 29.6009C166.093 29.4676 166.29 29.2809 166.423 29.0409C166.563 28.8009 166.633 28.5143 166.633 28.1809C166.633 27.8476 166.563 27.5609 166.423 27.3209C166.29 27.0809 166.093 26.8976 165.833 26.7709C165.58 26.6376 165.27 26.5709 164.903 26.5709C164.55 26.5709 164.243 26.6376 163.983 26.7709C163.723 26.8976 163.523 27.0809 163.383 27.3209C163.243 27.5609 163.173 27.8476 163.173 28.1809C163.173 28.5143 163.243 28.8009 163.383 29.0409C163.523 29.2809 163.723 29.4676 163.983 29.6009C164.243 29.7276 164.55 29.7909 164.903 29.7909ZM170.455 28.1809L170.115 31.0309H174.755C175.375 31.0309 175.865 30.8876 176.225 30.6009C176.592 30.3076 176.775 29.9143 176.775 29.4209C176.775 28.9609 176.595 28.6043 176.235 28.3509C176.036 28.2041 175.786 28.0955 175.487 28.0252C175.656 27.9562 175.806 27.8714 175.935 27.7709C176.262 27.5109 176.425 27.1743 176.425 26.7609C176.425 26.3209 176.262 25.9743 175.935 25.7209C175.615 25.4609 175.179 25.3309 174.625 25.3309H170.115L170.455 28.1809ZM172.003 29.8609H174.165C174.419 29.8609 174.605 29.8076 174.725 29.7009C174.845 29.5943 174.905 29.4443 174.905 29.2509C174.905 29.0709 174.839 28.9243 174.705 28.8109C174.572 28.6976 174.359 28.6409 174.065 28.6409H172.157L172.003 29.8609ZM172.147 27.6409H173.845C174.085 27.6409 174.262 27.5909 174.375 27.4909C174.495 27.3843 174.555 27.2443 174.555 27.0709C174.555 26.9043 174.502 26.7676 174.395 26.6609C174.289 26.5543 174.122 26.5009 173.895 26.5009H172.002L172.147 27.6409Z" fill="white"/>
</svg>
