<svg width="20" height="50" viewBox="0 20 20 50" fill="none" xmlns="http://www.w3.org/2000/svg">
<g clip-path="url(#clip0_2699_9487)">
<path fill-rule="evenodd" clip-rule="nonzero" d="M225.891 0H202.736L202.676 85.4258L225.997 56.2478L225.891 0ZM250.007 26.2383L271 0H250.007V26.2383ZM177.269 
117.207V29.8683L177.267 21.4012L149.852 52.2464V151.49L124.396 183.262L124.557 93.3871V80.7067L100.392 107.846V213.268L127.611 179.243L171.777 
258H252.613L172.978 122.532L177.269 117.207ZM0 186.086V230.688L71.0388 159.463L70.9462 156.756L70.6805 140.112L70.7316 140.051V111.981L0 186.086ZM70.8125 
250.312ZM0 139.1V92.8991L70.7316 20.4409V68.2229L0 139.1ZM45.644 0Z" fill="white"/>
</g>
<defs>
<clipPath id="clip0_2699_9487">
<rect width="20" height="65" fill="white"/>
</clipPath>
</defs>
</svg>
