<svg width="25" height="25" viewBox="0 0 25 25" fill="none" xmlns="http://www.w3.org/2000/svg">
<g clip-path="url(#clip0_4097_17757)">
<path d="M16.4293 12.5C16.4293 14.7486 14.6698 16.5714 12.4994 16.5714C10.329 16.5714 8.5695 14.7486 8.5695 12.5C8.5695 10.2514 10.329 8.42857 12.4994 8.42857C14.6698 8.42857 16.4293 10.2514 16.4293 12.5Z" fill="#1F2937"/>
<path d="M0 12.5C1.66926 6.9939 6.63442 3 12.5 3C18.3656 3 23.3308 6.99396 25 12.5C23.3307 18.0061 18.3656 22 12.5 22C6.63442 22 1.66923 18.0061 0 12.5Z" fill="#1F2937"/>
<path d="M16.4293 12.5C16.4293 14.7486 14.6698 16.5714 12.4994 16.5714C10.329 16.5714 8.5695 14.7486 8.5695 12.5C8.5695 10.2514 10.329 8.42857 12.4994 8.42857C14.6698 8.42857 16.4293 10.2514 16.4293 12.5Z" stroke="#E5E7EB" stroke-width="2" stroke-linecap="round" stroke-linejoin="round"/>
<path d="M0 12.5C1.66926 6.9939 6.63442 3 12.5 3C18.3656 3 23.3308 6.99396 25 12.5C23.3307 18.0061 18.3656 22 12.5 22C6.63442 22 1.66923 18.0061 0 12.5Z" stroke="#E5E7EB" stroke-width="2" stroke-linecap="round" stroke-linejoin="round"/>
</g>
<defs>
<clipPath id="clip0_4097_17757">
<rect width="25" height="25" fill="white"/>
</clipPath>
</defs>
</svg>
