<svg width="17" height="18" viewBox="0 0 17 18" fill="none" xmlns="http://www.w3.org/2000/svg">
<path d="M16.4852 11.9064C14.8801 16.3165 10.004 18.5903 5.59388 16.9852C1.18309 15.3801 -1.09066 10.5038 0.515129 6.09364C2.12021 1.68346 6.99639 -0.590342 11.4065 1.01478C15.8166 2.6199 18.0903 7.49618 16.4852 11.9064ZM9.49822 9.36338C9.55025 9.23139 9.5753 9.0903 9.57192 8.94847C9.56854 8.80663 9.53678 8.6669 9.47853 8.53753C9.42028 8.40816 9.3367 8.29177 9.23274 8.19522C9.12878 8.09868 9.00654 8.02393 8.87322 7.97539C8.73991 7.92685 8.59822 7.9055 8.45652 7.9126C8.31482 7.91971 8.17598 7.95512 8.04819 8.01675C7.9204 8.07838 7.80624 8.16498 7.71246 8.27144C7.61867 8.3779 7.54716 8.50207 7.50214 8.63662C7.41425 8.89927 7.43239 9.18586 7.5527 9.43534C7.673 9.68481 7.88597 9.87745 8.14622 9.9722C8.40647 10.067 8.69344 10.0563 8.94598 9.94263C9.19852 9.8289 9.39667 9.62106 9.49822 9.36338ZM6.41201 11.6315C6.51605 11.3675 6.56617 11.0854 6.55941 10.8017C6.55264 10.518 6.48913 10.2386 6.37263 9.97981C6.25612 9.72108 6.08897 9.48829 5.88105 9.2952C5.67313 9.1021 5.42864 8.95261 5.16201 8.85553C4.89538 8.75845 4.612 8.71575 4.32861 8.72996C4.04521 8.74417 3.76753 8.81499 3.51194 8.93825C3.25636 9.06151 3.02805 9.23471 2.84048 9.44764C2.65291 9.66056 2.50989 9.90889 2.41984 10.178C2.24406 10.7033 2.28034 11.2765 2.52096 11.7754C2.76157 12.2744 3.1875 12.6596 3.70801 12.8492C4.22851 13.0387 4.80243 13.0174 5.30752 12.79C5.8126 12.5626 6.20891 12.1469 6.41201 11.6315ZM8.59226 5.64242C8.69631 5.37843 8.74642 5.09627 8.73966 4.81259C8.73289 4.52891 8.66938 4.24946 8.55288 3.99072C8.43637 3.73198 8.26923 3.4992 8.0613 3.3061C7.85338 3.11301 7.60889 2.96351 7.34226 2.86643C7.07563 2.76935 6.79226 2.72666 6.50886 2.74087C6.22546 2.75507 5.94778 2.8259 5.69219 2.94916C5.43661 3.07242 5.2083 3.24562 5.02073 3.45854C4.83316 3.67147 4.69014 3.9198 4.60009 4.18889C4.42431 4.7142 4.46059 5.28738 4.70121 5.78633C4.94183 6.28528 5.36776 6.67055 5.88826 6.86006C6.40876 7.04958 6.98269 7.02835 7.48777 6.80091C7.99285 6.57346 8.38916 6.15778 8.59226 5.64242ZM14.5819 7.82202C14.6837 7.55845 14.7319 7.27724 14.7237 6.99482C14.7155 6.71241 14.6511 6.43447 14.5342 6.17726C14.4172 5.92005 14.2502 5.68873 14.0429 5.49684C13.8355 5.30494 13.592 5.15633 13.3265 5.05968C13.061 4.96304 12.7789 4.92031 12.4967 4.93399C12.2145 4.94766 11.9379 5.01748 11.683 5.13935C11.4281 5.26121 11.2001 5.43269 11.0122 5.64373C10.8244 5.85478 10.6805 6.10117 10.5891 6.36848C10.4133 6.89379 10.4496 7.46698 10.6902 7.96592C10.9308 8.46487 11.3567 8.85014 11.8772 9.03966C12.3977 9.22917 12.9717 9.20794 13.4767 8.9805C13.9818 8.75306 14.3781 8.33737 14.5812 7.82202H14.5819ZM12.4017 13.8111C12.5043 13.5473 12.5532 13.2657 12.5455 12.9828C12.5379 12.6999 12.4737 12.4214 12.357 12.1636C12.2402 11.9058 12.0731 11.6739 11.8654 11.4816C11.6578 11.2892 11.4139 11.1403 11.1479 11.0435C10.8819 10.9468 10.5993 10.9041 10.3167 10.918C10.034 10.932 9.75694 11.0022 9.50179 11.1247C9.24665 11.2472 9.01853 11.4194 8.83084 11.6312C8.64315 11.8431 8.49967 12.0902 8.40881 12.3583C8.23214 12.8839 8.26796 13.4578 8.50861 13.9575C8.74926 14.4571 9.17568 14.8428 9.69683 15.0324C10.218 15.2219 10.7926 15.2002 11.2979 14.9719C11.8033 14.7436 12.1994 14.3275 12.4017 13.8111Z" fill="#2B2F33"/>
</svg>
