<svg width="154" height="83" viewBox="0 0 154 83" fill="none" xmlns="http://www.w3.org/2000/svg">
<path d="M31.548 48V35.31H36.714C38.082 35.31 39.132 35.598 39.864 36.174C40.596 36.75 40.962 37.56 40.962 38.604C40.962 39.396 40.722 40.056 40.242 40.584C39.774 41.112 39.132 41.466 38.316 41.646V41.376C39.252 41.484 39.978 41.808 40.494 42.348C41.022 42.888 41.286 43.602 41.286 44.49C41.286 45.618 40.908 46.488 40.152 47.1C39.396 47.7 38.328 48 36.948 48H31.548ZM33.168 46.668H36.786C37.674 46.668 38.37 46.5 38.874 46.164C39.39 45.816 39.648 45.246 39.648 44.454C39.648 43.65 39.39 43.08 38.874 42.744C38.37 42.408 37.674 42.24 36.786 42.24H33.168V46.668ZM33.168 40.908H36.48C37.428 40.908 38.136 40.728 38.604 40.368C39.072 39.996 39.306 39.462 39.306 38.766C39.306 38.07 39.072 37.542 38.604 37.182C38.136 36.81 37.428 36.624 36.48 36.624H33.168V40.908ZM43.6911 48V38.946H48.1551C49.2231 38.946 50.0151 39.15 50.5311 39.558C51.0591 39.966 51.3231 40.554 51.3231 41.322C51.3231 41.898 51.1251 42.384 50.7291 42.78C50.3331 43.164 49.8171 43.398 49.1811 43.482V43.248C49.9371 43.272 50.5311 43.494 50.9631 43.914C51.4071 44.322 51.6291 44.85 51.6291 45.498C51.6291 46.266 51.3351 46.878 50.7471 47.334C50.1711 47.778 49.3611 48 48.3171 48H43.6911ZM45.2391 46.92H48.2091C48.8211 46.92 49.2891 46.794 49.6131 46.542C49.9371 46.278 50.0991 45.906 50.0991 45.426C50.0991 44.934 49.9371 44.562 49.6131 44.31C49.2891 44.058 48.8211 43.932 48.2091 43.932H45.2391V46.92ZM45.2391 42.852H48.0111C48.5751 42.852 49.0131 42.726 49.3251 42.474C49.6371 42.222 49.7931 41.874 49.7931 41.43C49.7931 40.974 49.6371 40.626 49.3251 40.386C49.0131 40.146 48.5751 40.026 48.0111 40.026H45.2391V42.852ZM58.0097 48.162C56.5697 48.162 55.4297 47.748 54.5897 46.92C53.7617 46.092 53.3477 44.952 53.3477 43.5C53.3477 42.54 53.5277 41.712 53.8877 41.016C54.2597 40.308 54.7697 39.762 55.4177 39.378C56.0657 38.982 56.8217 38.784 57.6857 38.784C58.5137 38.784 59.2157 38.964 59.7917 39.324C60.3677 39.672 60.8057 40.17 61.1057 40.818C61.4057 41.466 61.5557 42.234 61.5557 43.122V43.662H54.6257V42.69H60.4397L60.1337 42.924C60.1337 41.988 59.9237 41.262 59.5037 40.746C59.0957 40.23 58.4897 39.972 57.6857 39.972C56.8097 39.972 56.1317 40.278 55.6517 40.89C55.1717 41.49 54.9317 42.312 54.9317 43.356V43.518C54.9317 44.622 55.2017 45.456 55.7417 46.02C56.2937 46.584 57.0557 46.866 58.0277 46.866C58.5677 46.866 59.0717 46.788 59.5397 46.632C60.0077 46.476 60.4577 46.218 60.8897 45.858L61.4297 46.992C61.0217 47.364 60.5117 47.652 59.8997 47.856C59.2997 48.06 58.6697 48.162 58.0097 48.162ZM63.8896 51.888V41.088C63.8896 40.74 63.8776 40.386 63.8536 40.026C63.8296 39.666 63.7936 39.306 63.7456 38.946H65.3296L65.5276 41.034H65.3296C65.5096 40.338 65.8936 39.792 66.4816 39.396C67.0696 38.988 67.7716 38.784 68.5876 38.784C69.3916 38.784 70.0936 38.97 70.6936 39.342C71.2936 39.714 71.7556 40.254 72.0796 40.962C72.4156 41.658 72.5836 42.492 72.5836 43.464C72.5836 44.436 72.4156 45.276 72.0796 45.984C71.7556 46.692 71.2936 47.232 70.6936 47.604C70.0936 47.976 69.3916 48.162 68.5876 48.162C67.7836 48.162 67.0876 47.964 66.4996 47.568C65.9236 47.16 65.5336 46.614 65.3296 45.93H65.5276V51.888H63.8896ZM68.2096 46.866C69.0376 46.866 69.6976 46.578 70.1896 46.002C70.6816 45.426 70.9276 44.58 70.9276 43.464C70.9276 42.348 70.6816 41.508 70.1896 40.944C69.6976 40.38 69.0376 40.098 68.2096 40.098C67.3816 40.098 66.7216 40.38 66.2296 40.944C65.7496 41.508 65.5096 42.348 65.5096 43.464C65.5096 44.58 65.7496 45.426 66.2296 46.002C66.7216 46.578 67.3816 46.866 68.2096 46.866ZM73.5457 48L77.6497 42.924V43.734L73.7797 38.946H75.7417L78.5677 42.564H77.9737L80.7997 38.946H82.7437L78.9277 43.698V42.96L82.9777 48H80.9977L77.9737 44.13H78.5677L75.5077 48H73.5457Z" fill="white"/>
<path d="M102.333 36.6667L114 25M114 25L125.667 36.6667M114 25V55" stroke="white" stroke-width="2" stroke-linecap="round" stroke-linejoin="round"/>
<rect x="0.5" y="0.5" width="153" height="82" rx="19.5" stroke="white"/>
</svg>
