<svg width="23" height="23" viewBox="0 0 23 23" fill="none" xmlns="http://www.w3.org/2000/svg">
<path d="M10.9019 1.52254C11.4043 0.789378 12.4863 0.789378 12.9888 1.52254L16.0994 6.06132C16.2639 6.30133 16.5061 6.47729 16.7852 6.55957L22.0631 8.11539C22.9156 8.3667 23.25 9.39574 22.7079 10.1002L19.3525 14.4611C19.1751 14.6917 19.0826 14.9764 19.0906 15.2673L19.2419 20.7676C19.2663 21.6561 18.391 22.2921 17.5535 21.9943L12.3691 20.1507C12.095 20.0532 11.7956 20.0532 11.5215 20.1507L6.3371 21.9943C5.49966 22.2921 4.62431 21.6561 4.64874 20.7676L4.80002 15.2673C4.80802 14.9764 4.71551 14.6917 4.53808 14.4611L1.18268 10.1002C0.640672 9.39574 0.975026 8.3667 1.82757 8.11539L7.10544 6.55957C7.38454 6.47729 7.62674 6.30133 7.79122 6.06132L10.9019 1.52254Z" fill="#E5E7EB"/>
</svg>
