<svg width="23" height="23" viewBox="0 0 23 23" fill="none" xmlns="http://www.w3.org/2000/svg">
<path d="M10.3452 1.52254C10.8477 0.789378 11.9297 0.789378 12.4321 1.52254L15.5428 6.06132C15.7072 6.30133 15.9494 6.47729 16.2285 6.55957L21.5064 8.11539C22.359 8.3667 22.6933 9.39574 22.1513 10.1002L18.7959 14.4611C18.6185 14.6917 18.526 14.9764 18.534 15.2673L18.6852 20.7676C18.7097 21.6561 17.8343 22.2921 16.9969 21.9943L11.8125 20.1507C11.5384 20.0532 11.239 20.0532 10.9648 20.1507L5.78046 21.9943C4.94302 22.2921 4.06767 21.6561 4.0921 20.7676L4.24338 15.2673C4.25138 14.9764 4.15887 14.6917 3.98144 14.4611L0.626037 10.1002C0.0840315 9.39574 0.418386 8.3667 1.27093 8.11539L6.5488 6.55957C6.8279 6.47729 7.0701 6.30133 7.23458 6.06132L10.3452 1.52254Z" fill="#FFCC33"/>
</svg>
